<?xml version="1.0" encoding="UTF-8"?>
<svg width="617px" height="461px" viewBox="0 0 617 461" version="1.1" xmlns="http://www.w3.org/2000/svg" xmlns:xlink="http://www.w3.org/1999/xlink">
    <!-- Generator: Sketch 43.2 (39069) - http://www.bohemiancoding.com/sketch -->
    <title>Group</title>
    <desc>Created with Sketch.</desc>
    <defs></defs>
    <g id="Page-1" stroke="none" stroke-width="1" fill="none" fill-rule="evenodd">
        <g id="Group" transform="translate(0.000000, -11.000000)" fill-rule="nonzero">
            <path d="M70.2002437,50.3803357 C69.4117169,49.5928082 68.1354826,49.5928082 67.3469557,50.3803357 L43.3803357,74.3469557 C42.5928082,75.1354826 42.5928082,76.4117169 43.3803357,77.2002438 C44.1678632,77.9877712 45.4450968,77.9877712 46.2336237,77.2002438 L70.2002437,53.2326243 C70.9877712,52.4450968 70.9877712,51.1678632 70.2002437,50.3803357 M44.234823,55.2124364 L48.2134358,51.2338236 C49.0009633,50.4462961 49.0009633,49.1690625 48.2134358,48.381535 C47.4249089,47.5940075 46.1486747,47.5940075 45.3611472,48.381535 L41.381535,52.3601478 C40.5940075,53.1486747 40.5940075,54.424909 41.381535,55.2124364 C42.1690624,56.0009633 43.4462961,56.0009633 44.234823,55.2124364 M45.2342233,66.2058404 L59.2068398,52.233224 C59.9943673,51.4456965 59.9943673,50.1684628 59.2068398,49.3809353 C58.4183129,48.5934079 57.1420786,48.5934079 56.3535517,49.3809353 L42.3809353,63.3535518 C41.5934078,64.1420787 41.5934078,65.4183129 42.3809353,66.2058404 C43.1684628,66.9943673 44.4456965,66.9943673 45.2342233,66.2058404" id="25" fill-opacity="0.100000001" fill="#000000" transform="translate(55.790889, 62.790889) rotate(-102.000000) translate(-55.790889, -62.790889) "></path>
            <path d="M604.613633,27.613633 C597.986633,27.613633 592.613633,29.404633 592.613633,31.613633 C592.613633,33.822633 597.986633,35.613633 604.613633,35.613633 C611.240633,35.613633 616.613633,33.822633 616.613633,31.613633 C616.613633,29.404633 611.240633,27.613633 604.613633,27.613633 L604.613633,27.613633 Z M604.613633,12.613633 L595.848633,25.760633 C598.366633,25.037633 601.375633,24.613633 604.613633,24.613633 C607.851633,24.613633 610.860633,25.037633 613.378633,25.760633 L604.613633,12.613633 Z M620.613633,31.613633 C620.613633,35.479633 613.449633,38.613633 604.613633,38.613633 C595.777633,38.613633 588.613633,35.479633 588.613633,31.613633 C588.613633,30.389633 589.508633,29.397633 589.391633,29.555633 L604.613633,6.61363299 L619.885633,29.521633 C619.893633,29.532633 619.899633,29.543633 619.906633,29.553633 C619.906633,29.553633 620.613633,30.367633 620.613633,31.613633 L620.613633,31.613633 Z" id="9" fill-opacity="0.100000001" fill="#000000" transform="translate(604.613633, 22.613633) rotate(47.000000) translate(-604.613633, -22.613633) "></path>
            <path d="M323.580986,353.574516 C323.619651,353.52865 323.635118,353.472274 323.678616,353.430231 C324.430659,352.685876 325.651519,352.685876 326.404528,353.430231 L331.832186,358.795512 L337.113883,353.574516 C337.152548,353.52865 337.168014,353.472274 337.211513,353.430231 C337.594301,353.051843 338.096951,352.867426 338.598635,352.874115 C339.100319,352.867426 339.603936,353.051843 339.986723,353.430231 C340.030222,353.472274 340.045688,353.52865 340.083387,353.574516 L346.753172,360.166693 C347.505214,360.911048 347.505214,362.117878 346.753172,362.862233 C346.000163,363.606588 344.779302,363.606588 344.026293,362.862233 L338.598635,357.495996 L333.317905,362.716037 C333.27924,362.761903 333.263774,362.819234 333.220275,362.862233 C332.837487,363.240621 332.33387,363.424082 331.832186,363.417394 C331.330503,363.424082 330.827852,363.240621 330.444098,362.862233 C330.400599,362.819234 330.385133,362.761903 330.346468,362.716037 L325.065738,357.495996 L319.608114,362.891854 C318.855105,363.636209 317.634244,363.636209 316.881235,362.891854 C316.129193,362.147499 316.129193,360.940669 316.881235,360.19727 L323.580986,353.574516 Z M344.026293,350.440389 L338.598635,345.074152 L333.317905,350.294193 C333.27924,350.340058 333.263774,350.39739 333.220275,350.440389 C332.837487,350.818777 332.33387,351.002238 331.832186,350.996505 C331.330503,351.002238 330.827852,350.818777 330.444098,350.440389 C330.400599,350.39739 330.385133,350.340058 330.346468,350.294193 L325.065738,345.074152 L319.608114,350.47001 C318.855105,351.214365 317.634244,351.214365 316.881235,350.47001 C316.129193,349.725655 316.129193,348.518825 316.881235,347.775425 L323.580986,341.152671 C323.619651,341.106806 323.635118,341.05043 323.678616,341.008387 C324.430659,340.264032 325.651519,340.264032 326.404528,341.008387 L331.832186,346.372713 L337.113883,341.152671 C337.152548,341.106806 337.168014,341.05043 337.211513,341.008387 C337.594301,340.629998 338.096951,340.445582 338.598635,340.45227 C339.100319,340.445582 339.603936,340.629998 339.986723,341.008387 C340.030222,341.05043 340.045688,341.106806 340.083387,341.152671 L346.753172,347.744849 C347.505214,348.489204 347.505214,349.696034 346.753172,350.440389 C346.000163,351.184744 344.779302,351.184744 344.026293,350.440389 L344.026293,350.440389 Z" id="4" fill-opacity="0.100000001" fill="#000000" transform="translate(331.817204, 351.950120) rotate(15.000000) translate(-331.817204, -351.950120) "></path>
            <path d="M472.848393,124.055102 C472.887058,124.009236 472.902525,123.95286 472.946023,123.910817 C473.698066,123.166462 474.918926,123.166462 475.671935,123.910817 L481.099594,129.276098 L486.38129,124.055102 C486.419955,124.009236 486.435421,123.95286 486.47892,123.910817 C486.861708,123.532429 487.364358,123.348012 487.866042,123.354701 C488.367726,123.348012 488.871343,123.532429 489.25413,123.910817 C489.297629,123.95286 489.313095,124.009236 489.350794,124.055102 L496.020579,130.647279 C496.772621,131.391634 496.772621,132.598464 496.020579,133.342819 C495.26757,134.087174 494.046709,134.087174 493.2937,133.342819 L487.866042,127.976582 L482.585312,133.196623 C482.546647,133.242489 482.531181,133.29982 482.487682,133.342819 C482.104894,133.721207 481.601277,133.904669 481.099594,133.89798 C480.59791,133.904669 480.095259,133.721207 479.711505,133.342819 C479.668006,133.29982 479.65254,133.242489 479.613875,133.196623 L474.333145,127.976582 L468.875521,133.37244 C468.122512,134.116795 466.901652,134.116795 466.148642,133.37244 C465.3966,132.628085 465.3966,131.421255 466.148642,130.677856 L472.848393,124.055102 Z M493.2937,120.920975 L487.866042,115.554738 L482.585312,120.774779 C482.546647,120.820644 482.531181,120.877976 482.487682,120.920975 C482.104894,121.299363 481.601277,121.482824 481.099594,121.477091 C480.59791,121.482824 480.095259,121.299363 479.711505,120.920975 C479.668006,120.877976 479.65254,120.820644 479.613875,120.774779 L474.333145,115.554738 L468.875521,120.950596 C468.122512,121.694951 466.901652,121.694951 466.148642,120.950596 C465.3966,120.206241 465.3966,118.999411 466.148642,118.256011 L472.848393,111.633257 C472.887058,111.587392 472.902525,111.531016 472.946023,111.488973 C473.698066,110.744618 474.918926,110.744618 475.671935,111.488973 L481.099594,116.853299 L486.38129,111.633257 C486.419955,111.587392 486.435421,111.531016 486.47892,111.488973 C486.861708,111.110584 487.364358,110.926168 487.866042,110.932856 C488.367726,110.926168 488.871343,111.110584 489.25413,111.488973 C489.297629,111.531016 489.313095,111.587392 489.350794,111.633257 L496.020579,118.225435 C496.772621,118.96979 496.772621,120.17662 496.020579,120.920975 C495.26757,121.66533 494.046709,121.66533 493.2937,120.920975 L493.2937,120.920975 Z" id="4" fill-opacity="0.100000001" fill="#000000" transform="translate(481.084611, 122.430706) rotate(-152.000000) translate(-481.084611, -122.430706) "></path>
            <path d="M10.9427457,438.605937 C10.9814111,438.560071 10.9968773,438.503695 11.0403759,438.461652 C11.7924183,437.717297 13.0132789,437.717297 13.7662879,438.461652 L19.1939462,443.826933 L24.4756425,438.605937 C24.5143079,438.560071 24.529774,438.503695 24.5732726,438.461652 C24.9560603,438.083264 25.4587107,437.898847 25.9603946,437.905536 C26.4620784,437.898847 26.9656955,438.083264 27.3484831,438.461652 C27.3919817,438.503695 27.4074479,438.560071 27.4451467,438.605937 L34.1149315,445.198114 C34.8669739,445.942469 34.8669739,447.149299 34.1149315,447.893654 C33.3619225,448.638009 32.1410619,448.638009 31.3880528,447.893654 L25.9603946,442.527417 L20.6796649,447.747458 C20.6409995,447.793324 20.6255333,447.850655 20.5820347,447.893654 C20.1992471,448.272042 19.69563,448.455503 19.1939462,448.448815 C18.6922624,448.455503 18.1896119,448.272042 17.8058576,447.893654 C17.762359,447.850655 17.7468929,447.793324 17.7082274,447.747458 L12.4274978,442.527417 L6.96987386,447.923275 C6.21686482,448.66763 4.9960042,448.66763 4.24299516,447.923275 C3.49095275,447.17892 3.49095275,445.97209 4.24299516,445.228691 L10.9427457,438.605937 Z M31.3880528,435.47181 L25.9603946,430.105573 L20.6796649,435.325614 C20.6409995,435.371479 20.6255333,435.428811 20.5820347,435.47181 C20.1992471,435.850198 19.69563,436.033659 19.1939462,436.027926 C18.6922624,436.033659 18.1896119,435.850198 17.8058576,435.47181 C17.762359,435.428811 17.7468929,435.371479 17.7082274,435.325614 L12.4274978,430.105573 L6.96987386,435.501431 C6.21686482,436.245786 4.9960042,436.245786 4.24299516,435.501431 C3.49095275,434.757076 3.49095275,433.550246 4.24299516,432.806846 L10.9427457,426.184092 C10.9814111,426.138227 10.9968773,426.081851 11.0403759,426.039808 C11.7924183,425.295453 13.0132789,425.295453 13.7662879,426.039808 L19.1939462,431.404133 L24.4756425,426.184092 C24.5143079,426.138227 24.529774,426.081851 24.5732726,426.039808 C24.9560603,425.661419 25.4587107,425.477003 25.9603946,425.483691 C26.4620784,425.477003 26.9656955,425.661419 27.3484831,426.039808 C27.3919817,426.081851 27.4074479,426.138227 27.4451467,426.184092 L34.1149315,432.77627 C34.8669739,433.520625 34.8669739,434.727455 34.1149315,435.47181 C33.3619225,436.216165 32.1410619,436.216165 31.3880528,435.47181 L31.3880528,435.47181 Z" id="4" fill-opacity="0.100000001" fill="#000000" transform="translate(19.178963, 436.981542) rotate(137.000000) translate(-19.178963, -436.981542) "></path>
            <path d="M124.820976,214.241562 C124.859641,214.195697 124.875107,214.139321 124.918606,214.097278 C125.670648,213.352923 126.891509,213.352923 127.644518,214.097278 L133.072176,219.462559 L138.353872,214.241562 C138.392538,214.195697 138.408004,214.139321 138.451502,214.097278 C138.83429,213.718889 139.336941,213.534473 139.838624,213.541161 C140.340308,213.534473 140.843925,213.718889 141.226713,214.097278 C141.270212,214.139321 141.285678,214.195697 141.323377,214.241562 L147.993161,220.833739 C148.745204,221.578095 148.745204,222.784924 147.993161,223.52928 C147.240152,224.273635 146.019292,224.273635 145.266283,223.52928 L139.838624,218.163043 L134.557895,223.383084 C134.519229,223.428949 134.503763,223.486281 134.460265,223.52928 C134.077477,223.907668 133.57386,224.091129 133.072176,224.08444 C132.570492,224.091129 132.067842,223.907668 131.684087,223.52928 C131.640589,223.486281 131.625123,223.428949 131.586457,223.383084 L126.305728,218.163043 L120.848104,223.558901 C120.095095,224.303256 118.874234,224.303256 118.121225,223.558901 C117.369183,222.814546 117.369183,221.607716 118.121225,220.864316 L124.820976,214.241562 Z M145.266283,211.107435 L139.838624,205.741199 L134.557895,210.96124 C134.519229,211.007105 134.503763,211.064437 134.460265,211.107435 C134.077477,211.485824 133.57386,211.669285 133.072176,211.663552 C132.570492,211.669285 132.067842,211.485824 131.684087,211.107435 C131.640589,211.064437 131.625123,211.007105 131.586457,210.96124 L126.305728,205.741199 L120.848104,211.137057 C120.095095,211.881412 118.874234,211.881412 118.121225,211.137057 C117.369183,210.392702 117.369183,209.185872 118.121225,208.442472 L124.820976,201.819718 C124.859641,201.773853 124.875107,201.717477 124.918606,201.675434 C125.670648,200.931078 126.891509,200.931078 127.644518,201.675434 L133.072176,207.039759 L138.353872,201.819718 C138.392538,201.773853 138.408004,201.717477 138.451502,201.675434 C138.83429,201.297045 139.336941,201.112629 139.838624,201.119317 C140.340308,201.112629 140.843925,201.297045 141.226713,201.675434 C141.270212,201.717477 141.285678,201.773853 141.323377,201.819718 L147.993161,208.411895 C148.745204,209.15625 148.745204,210.36308 147.993161,211.107435 C147.240152,211.851791 146.019292,211.851791 145.266283,211.107435 L145.266283,211.107435 Z" id="4" fill-opacity="0.100000001" fill="#000000" transform="translate(133.057193, 212.617167) rotate(96.000000) translate(-133.057193, -212.617167) "></path>
            <path d="M462.830648,467.830648 C456.203648,467.830648 450.830648,462.458648 450.830648,455.830648 C450.830648,449.202648 456.203648,443.830648 462.830648,443.830648 C469.457648,443.830648 474.830648,449.202648 474.830648,455.830648 C474.830648,462.458648 469.457648,467.830648 462.830648,467.830648 M462.830648,439.830648 C453.994648,439.830648 446.830648,446.993648 446.830648,455.830648 C446.830648,464.666648 453.994648,471.830648 462.830648,471.830648 C471.666648,471.830648 478.830648,464.666648 478.830648,455.830648 C478.830648,446.993648 471.666648,439.830648 462.830648,439.830648" id="3" fill-opacity="0.100000001" fill="#000000" transform="translate(462.830648, 455.830648) rotate(-83.000000) translate(-462.830648, -455.830648) "></path>
            <path d="M251.421751,68.6306729 L239.921751,68.6306729 C237.813417,68.6306729 236.107584,70.3556729 236.107584,72.4640063 L236.088417,95.4640063 C236.088417,97.5723396 237.813417,99.2973396 239.921751,99.2973396 L270.588417,99.2973396 C272.696751,99.2973396 274.421751,97.5723396 274.421751,95.4640063 L274.421751,76.2973396 C274.421751,74.1890063 272.696751,72.4640063 270.588417,72.4640063 L255.255084,72.4640063 L251.421751,68.6306729 Z" id="Shape" stroke-opacity="0.100147192" stroke="#000000" stroke-width="3" transform="translate(255.255084, 83.964006) rotate(-20.000000) translate(-255.255084, -83.964006) "></path>
            <path d="M500.421751,297.630673 L488.921751,297.630673 C486.813417,297.630673 485.107584,299.355673 485.107584,301.464006 L485.088417,324.464006 C485.088417,326.57234 486.813417,328.29734 488.921751,328.29734 L519.588417,328.29734 C521.696751,328.29734 523.421751,326.57234 523.421751,324.464006 L523.421751,305.29734 C523.421751,303.189006 521.696751,301.464006 519.588417,301.464006 L504.255084,301.464006 L500.421751,297.630673 Z" id="Shape" stroke-opacity="0.100147192" stroke="#000000" stroke-width="3" transform="translate(504.255084, 312.964006) rotate(21.000000) translate(-504.255084, -312.964006) "></path>
            <path d="M137.491779,359.616304 L129.035136,359.616304 C127.484752,359.616304 126.23035,360.884801 126.23035,362.435185 L126.216255,379.348471 C126.216255,380.898855 127.484752,382.167351 129.035136,382.167351 L151.586184,382.167351 C153.136568,382.167351 154.405065,380.898855 154.405065,379.348471 L154.405065,365.254066 C154.405065,363.703681 153.136568,362.435185 151.586184,362.435185 L140.31066,362.435185 L137.491779,359.616304 Z" id="Shape" stroke-opacity="0.100147192" stroke="#000000" stroke-width="3" transform="translate(140.310660, 370.891828) rotate(-18.000000) translate(-140.310660, -370.891828) "></path>
            <path d="M254.802357,259.880006 C248.175357,259.880006 242.802357,254.508006 242.802357,247.880006 C242.802357,241.252006 248.175357,235.880006 254.802357,235.880006 C261.429357,235.880006 266.802357,241.252006 266.802357,247.880006 C266.802357,254.508006 261.429357,259.880006 254.802357,259.880006 M254.802357,231.880006 C245.966357,231.880006 238.802357,239.043006 238.802357,247.880006 C238.802357,256.716006 245.966357,263.880006 254.802357,263.880006 C263.638357,263.880006 270.802357,256.716006 270.802357,247.880006 C270.802357,239.043006 263.638357,231.880006 254.802357,231.880006" id="3" fill-opacity="0.100000001" fill="#000000" transform="translate(254.802357, 247.880006) rotate(-81.000000) translate(-254.802357, -247.880006) "></path>
        </g>
    </g>
</svg>