<?xml version="1.0" encoding="utf-8"?>
<!-- Generator: Adobe Illustrator 20.1.0, SVG Export Plug-In . SVG Version: 6.00 Build 0)  -->
<svg version="1.1" id="Layer_1" xmlns="http://www.w3.org/2000/svg" xmlns:xlink="http://www.w3.org/1999/xlink" x="0px" y="0px"
	 viewBox="0 0 200 270" style="enable-background:new 0 0 200 270;" xml:space="preserve">
<style type="text/css">
	.st0{fill:#95D4C5;}
	.st1{opacity:0.19;fill:#231F20;enable-background:new    ;}
	.st2{fill:none;}
	.st3{font-family:'MyriadPro-Bold', sans-serif;}
	.st4{font-size:46px;}
	.st5{fill:#FFFFFF;}
	.st6{font-size:40px;}
	.st7{letter-spacing:4;}
</style>
<path class="st0" d="M22.9,1.2C10,1.2,0,11.1,0,24.1V246c0,11.9,10,22.9,22.9,22.9h154.2c11.9,0,22.9-10,22.9-22.9V60.9L140.3,1.2
	H22.9z"/>
<path class="st1" d="M139.3,38V1.2L199,60.9h-36.8C149.3,60.9,139.3,50.9,139.3,38z"/>
<circle class="st1" cx="100" cy="171.5" r="49.8"/>
<rect x="67.8" y="154.6" class="st2" width="64.3" height="35.6"/>
<text transform="matrix(1 0 0 1 74.4701 187.26)" class="st3 st4">21</text>
<rect x="10.2" y="67.1" class="st2" width="179.6" height="45.4"/>
<text transform="matrix(1 0 0 1 61.8208 95.5)" class="st5 st3 st6 st7">TXT</text>
</svg>
