<?xml version="1.0" encoding="utf-8"?>
<!-- Generator: Adobe Illustrator 20.1.0, SVG Export Plug-In . SVG Version: 6.00 Build 0)  -->
<svg version="1.1" id="Layer_1" xmlns="http://www.w3.org/2000/svg" xmlns:xlink="http://www.w3.org/1999/xlink" x="0px" y="0px"
	 viewBox="0 0 20 16" style="enable-background:new 0 0 20 16;" xml:space="preserve">
<style type="text/css">
	.st0{fill:#C6C5D1;}
	.st1{fill:#D2D3DF;}
</style>
<g>
	<path class="st0" d="M7.5,0C7.4,0,2,0,2,0C0.9,0,0,0.9,0,2l0,12c0,1.1,0.9,2,2,2h16c1.1,0,2-0.9,2-2V4c0-1.1-0.9-2-2-2
		c0,0-7.5,0-8,0C9,2,9.9,0,7.5,0z"/>
	<path class="st1" d="M0,2l18,0c1.1,0,2,0.9,2,2v10c0,1.1-0.9,2-2,2H2c-1.1,0-2-0.9-2-2L0,2z"/>
</g>
</svg>
