<svg xmlns="http://www.w3.org/2000/svg" xmlns:xlink="http://www.w3.org/1999/xlink" viewBox="0 0 174 174" enable-background="new 0 0 174 174"><defs><clipPath id="0"><use xlink:href="#3"/></clipPath><ellipse id="3" cx="87" cy="87" rx="86.956" ry="87"/><radialGradient id="2" cx="-471.41" cy="77.21" r="2.615" gradientTransform="matrix(-1 0 0 1-371.53 0)" gradientUnits="userSpaceOnUse" xlink:href="#1"/><radialGradient id="1" cx="74.33" cy="77.21" r="2.615" gradientUnits="userSpaceOnUse"><stop stop-color="#624a2e"/><stop offset=".036" stop-color="#6d5633"/><stop offset=".122" stop-color="#816b3d"/><stop offset=".223" stop-color="#907c45"/><stop offset=".348" stop-color="#9b884a"/><stop offset=".523" stop-color="#a18f4d"/><stop offset="1" stop-color="#a3914e"/></radialGradient></defs><ellipse cx="87" cy="87" rx="86.956" ry="87" fill="#8fc684" clip-path="url(#0)"/><g clip-path="url(#0)"><g fill-rule="evenodd"><g fill="#f5be92"><ellipse transform="matrix(-.3126-.9499.9499-.3126 1.619 148.15)" cx="54.41" cy="73.49" rx="7.934" ry="4.588"/><ellipse transform="matrix(.3129-.9498.9498.3129 12.527 164.3)" cx="119.81" cy="73.49" rx="7.934" ry="4.588"/></g><path d="m110.01 33.08c6.732 1.073 10.457 5.688 12.05 11.953 4.15 16.307-4.537 51.674-34.609 52.09-15.506.218-26.676-3.726-30.746-16.276-4.068-12.553-5.738-32.778 3.105-44.11 11.129-14.262 34.486-14.396 50.2-3.658" fill="#5f5659"/><path d="m74.45 116.21c-28.14 12.339-36.586 18.915-39.924 21.868-5.143 4.551-8.162 22.11-11.195 36.509h63.67 63.67c-3.03-14.402-5.703-31.958-10.846-36.509-3.336-2.953-11.471-9.361-39.613-21.699l-25.768-.169z" fill="#025784" stroke="#025784" stroke-linejoin="round" stroke-linecap="round" stroke-width="1.084" stroke-miterlimit="10"/><g fill="#f5be92"><path d="m73.51 91.62v20.886 12.48c7.514 8.885 19.813 9.203 27.328 0v-12.48-20.886c0-16.845-27.328-16.845-27.328 0"/><path d="m87.17 35.609c-45.863 0-29.369 59.754-26.373 64.17 3.303 4.863 18.963 13.42 26.373 13.42 7.41 0 23.07-9.64 26.375-14.505 2.994-4.411 19.489-63.08-26.375-63.08"/></g><g fill="#fff" stroke="#fff" stroke-linecap="round" stroke-width="2" stroke-miterlimit="10"><path d="m72.21 115.88l-9.691 5.244 14.05 19.48 10.662-10.115-15.02-14.609z"/><path d="m102.26 115.88l9.691 5.244-14.05 19.48-10.662-10.115 15.02-14.609z"/></g></g><g><g><path d="m68.46 77.64c0 0 1.49 2.515 6.07 2.515 4.581 0 5.385-2.151 5.43-2.909 0 0-1.759-2.987-5.367-2.987s-6.133 3.381-6.133 3.381" fill="#fff"/><g><g><circle cx="74.33" cy="77.21" r="2.615" fill="url(#1)"/><path d="m74.33 74.854c1.298 0 2.353 1.055 2.353 2.351 0 1.297-1.056 2.352-2.353 2.352-1.296 0-2.351-1.055-2.351-2.352-.001-1.296 1.054-2.351 2.351-2.351m0-.526c-1.589 0-2.877 1.288-2.877 2.877 0 1.59 1.288 2.878 2.877 2.878 1.59 0 2.879-1.288 2.879-2.878-.001-1.589-1.29-2.877-2.879-2.877z" fill="#624a2e"/></g><circle cx="74.33" cy="77.2" r="1.203"/></g></g><g><path d="m105.75 77.64c0 0-1.489 2.515-6.07 2.515-4.58 0-5.384-2.151-5.43-2.909 0 0 1.76-2.987 5.368-2.987 3.61-.001 6.132 3.381 6.132 3.381" fill="#fff"/><g><g><circle cx="99.88" cy="77.21" r="2.615" fill="url(#2)"/><path d="m99.88 74.854c1.297 0 2.352 1.055 2.352 2.351 0 1.297-1.055 2.352-2.352 2.352-1.297 0-2.352-1.055-2.352-2.352 0-1.296 1.055-2.351 2.352-2.351m0-.526c-1.589 0-2.878 1.288-2.878 2.877 0 1.59 1.289 2.878 2.878 2.878 1.59 0 2.878-1.288 2.878-2.878 0-1.589-1.288-2.877-2.878-2.877z" fill="#624a2e"/></g><circle cx="99.88" cy="77.2" r="1.203"/></g></g><g fill="#e48f67"><path d="m82.06 89.7c-.716.435-.869 1.168-.129 1.701 1.237.892 2.997.974 4.461.973 1.536-.001 3.361-.137 4.694-.978.683-.43 1.163-1.815.206-2.236-.181-.08-.463.008-.441.253.029.325.334.63.275.929-.079.396-.675.617-.995.74-.996.383-2.119.446-3.173.475-.935.025-5.768.093-4.764-1.724.046-.083-.049-.185-.134-.133"/><path d="m78.56 101.57c4.967 3.681 12.688 2.651 17.484-.777.145-.104.023-.305-.138-.236-5.877 2.53-11.194 3.151-17.21.692-.2-.082-.282.212-.136.321"/></g><g fill="#5f5659"><path d="m63.32 67.08c5.654-.83 11.08-1.645 16.338 1.309.507.285.946-.472.454-.776-4.354-2.692-12.443-3.809-16.848-.665-.07.049-.026.144.056.132"/><path d="m110.74 66.947c-4.404-3.144-12.493-2.027-16.848.665-.493.304-.053 1.061.454.776 5.255-2.953 10.683-2.139 16.338-1.309.082.013.126-.082.056-.132"/></g></g><g fill="#5f5659"><path d="m117.56 52.04c-.37-.982-.797-1.903-1.257-2.787.05-.49-.04-1.01-.309-1.513-.594-1.112-1.212-1.931-2.168-2.748-.221-.188-.462-.331-.714-.435-4.103-4.674-9.851-7.464-16.372-9.116-6.129-1.553-12.678-1.428-18.95-1.524-2.67-.04-4.851.987-6.955 2.233-1.239-.233-2.71.324-2.944 1.716-.005.031-.008.063-.013.093-.882.526-1.783 1.025-2.734 1.429-1.331.565-1.602 2.161-1.117 3.409-.079-.09-.165-.171-.242-.264-1.08-1.288-2.886.351-2.208 1.704 4.746 9.48 18.03 11.571 27.465 12.851 1.909.259 3.554-2.432 1.446-3.432-1.576-.748-2.593-1.788-3.619-3.208-1.46-2.02-.222-5.248 2.245-3.554 2.41 1.656 4.761 3.28 7.49 4.401 6.17 2.533 12.564 3.181 19.19 3.066 1.105-.016 2.202-1.172 1.769-2.321m-19.322-3.982c.006.009.013.018.019.026-.015-.006-.03-.013-.045-.019.008-.002.017-.005.026-.007"/><path d="m54.923 60.05c-.21-.287-.729-.31-.821.107-1.077 4.918-.746 10.503-.276 15.484.403 4.27.554 9.396 3.257 12.838.825 1.051 2.177.041 2.301-.953.547-4.37-1.262-9.718-2.061-14.07-.772-4.208.236-9.807-2.4-13.407"/><path d="m119.76 63.901c-.16-.468-.778-.461-.941 0-1.021 2.888-1.085 6.02-1.344 9.06-.388 4.552-1.05 9.113-1.899 13.6-.424 2.24 3 3.195 3.428.945 1.367-7.219 3.188-16.501.756-23.603"/></g></g></svg>