<?xml version="1.0" encoding="utf-8"?>
<!-- Generator: Adobe Illustrator 20.1.0, SVG Export Plug-In . SVG Version: 6.00 Build 0)  -->
<svg version="1.1" id="Layer_1" xmlns="http://www.w3.org/2000/svg" xmlns:xlink="http://www.w3.org/1999/xlink" x="0px" y="0px"
	 viewBox="0 0 174 174" style="enable-background:new 0 0 174 174;" xml:space="preserve">
<style type="text/css">
	.st0{clip-path:url(#SVGID_2_);fill:#EFAF7F;}
	.st1{clip-path:url(#SVGID_4_);}
	.st2{fill:#FFC785;}
	.st3{fill:#924A0B;}
	.st4{fill:#179E85;stroke:#179E85;stroke-width:1.084;stroke-linecap:round;stroke-linejoin:round;stroke-miterlimit:10;}
	.st5{fill:#F5BE92;}
	.st6{fill:#FFFFFF;stroke:#FFFFFF;stroke-width:2;stroke-linecap:round;stroke-miterlimit:10;}
	.st7{fill:#FFFFFF;}
	.st8{fill:url(#SVGID_5_);}
	.st9{fill:#2E4962;}
	.st10{fill:url(#SVGID_6_);}
	.st11{fill:#E48F67;}
</style>
<g>
	<defs>
		<ellipse id="SVGID_1_" cx="87" cy="87" rx="87" ry="87"/>
	</defs>
	<clipPath id="SVGID_2_">
		<use xlink:href="#SVGID_1_"  style="overflow:visible;"/>
	</clipPath>
	<ellipse class="st0" cx="87" cy="87" rx="87" ry="87"/>
</g>
<g>
	<defs>
		<ellipse id="SVGID_3_" cx="87" cy="87" rx="87" ry="87"/>
	</defs>
	<clipPath id="SVGID_4_">
		<use xlink:href="#SVGID_3_"  style="overflow:visible;"/>
	</clipPath>
	<g class="st1">
		<g>
			<g>
				<ellipse class="st2" cx="55.2" cy="73.5" rx="7.9" ry="4.6"/>
				<ellipse class="st2" cx="120.6" cy="73.5" rx="7.9" ry="4.6"/>
			</g>
			<path class="st3" d="M67.2,33.1c-6.7,1.1-10.5,5.7-12,12C51,61.3,59.7,96.7,89.8,97.1c15.5,0.2,26.7-3.7,30.7-16.3
				c4.1-12.6,5.7-32.8-3.1-44.1C106.3,22.5,82.9,22.3,67.2,33.1"/>
			<path class="st4" d="M75.2,116.2c-28.1,12.3-36.6,18.9-39.9,21.9c-5.1,4.6-8.2,22.1-11.2,36.5h63.7h63.7
				c-3-14.4-5.7-32-10.8-36.5c-3.3-3-11.5-9.4-39.6-21.7L75.2,116.2L75.2,116.2z"/>
			<g>
				<path class="st5" d="M74.3,91.6v20.9V125c7.5,8.9,19.8,9.2,27.3,0v-12.5V91.6C101.6,74.8,74.3,74.8,74.3,91.6"/>
				<path class="st5" d="M88,35.6c-45.9,0-29.4,59.8-26.4,64.2c3.3,4.9,19,13.4,26.4,13.4s23.1-9.6,26.4-14.5
					C117.3,94.3,133.8,35.6,88,35.6"/>
			</g>
			<path class="st3" d="M65.6,50c8.1,4.9,14.3-2.4,21.6,0.7c7.3,3.1,28.2-5.4,32.4,27.8c6.9-24-4.7-44.1-31-45.3
				C60.6,32,49.3,53.9,57,77.8C56.5,64.9,59.7,56.4,65.6,50"/>
			<g>
				<path class="st6" d="M73,115.9l-9.7,5.2l14.1,19.5L88,130.5L73,115.9L73,115.9z"/>
				<path class="st6" d="M103.1,115.9l9.7,5.2l-14.1,19.5L88,130.5L103.1,115.9z"/>
			</g>
		</g>
		<path class="st3" d="M64.9,47.9c0.6,4,6.5,4.6,9.7,4.9c6.2,0.6,13.8-1.8,18.9-5.3c0.4-0.3,0.2-0.8-0.2-0.9
			c-5.4-0.3-10.2,3.4-15.6,3.9c-3.9,0.3-9.2-0.2-12.2-2.9C65.2,47.4,64.9,47.7,64.9,47.9"/>
		<g>
			<g>
				<path class="st7" d="M69.3,77.6c0,0,1.5,2.5,6.1,2.5c4.6,0,5.4-2.2,5.4-2.9c0,0-1.8-3-5.4-3C71.8,74.3,69.3,77.6,69.3,77.6"/>
				<g>
					<g>
						
							<radialGradient id="SVGID_5_" cx="75.13" cy="98.79" r="2.615" gradientTransform="matrix(1 0 0 -1 0 176)" gradientUnits="userSpaceOnUse">
							<stop  offset="0" style="stop-color:#2E4962"/>
							<stop  offset="1.900000e-02" style="stop-color:#314E68"/>
							<stop  offset="0.106" style="stop-color:#3C627D"/>
							<stop  offset="0.209" style="stop-color:#44728E"/>
							<stop  offset="0.336" style="stop-color:#4A7D9A"/>
							<stop  offset="0.514" style="stop-color:#4D83A1"/>
							<stop  offset="1" style="stop-color:#4E85A3"/>
						</radialGradient>
						<circle class="st8" cx="75.1" cy="77.2" r="2.6"/>
						<path class="st9" d="M75.1,74.9c1.3,0,2.4,1.1,2.4,2.4c0,1.3-1.1,2.4-2.4,2.4c-1.3,0-2.4-1.1-2.4-2.4
							C72.8,75.9,73.8,74.9,75.1,74.9 M75.1,74.3c-1.6,0-2.9,1.3-2.9,2.9c0,1.6,1.3,2.9,2.9,2.9c1.6,0,2.9-1.3,2.9-2.9
							C78,75.6,76.7,74.3,75.1,74.3z"/>
					</g>
					<circle cx="75.1" cy="77.2" r="1.2"/>
				</g>
			</g>
			<g>
				<path class="st7" d="M106.6,77.6c0,0-1.5,2.5-6.1,2.5s-5.4-2.2-5.4-2.9c0,0,1.8-3,5.4-3C104,74.3,106.6,77.6,106.6,77.6"/>
				<g>
					<g>
						
							<radialGradient id="SVGID_6_" cx="432.71" cy="98.79" r="2.615" gradientTransform="matrix(-1 0 0 -1 533.39 176)" gradientUnits="userSpaceOnUse">
							<stop  offset="0" style="stop-color:#2E4962"/>
							<stop  offset="1.900000e-02" style="stop-color:#314E68"/>
							<stop  offset="0.106" style="stop-color:#3C627D"/>
							<stop  offset="0.209" style="stop-color:#44728E"/>
							<stop  offset="0.336" style="stop-color:#4A7D9A"/>
							<stop  offset="0.514" style="stop-color:#4D83A1"/>
							<stop  offset="1" style="stop-color:#4E85A3"/>
						</radialGradient>
						<circle class="st10" cx="100.7" cy="77.2" r="2.6"/>
						<path class="st9" d="M100.7,74.9c1.3,0,2.4,1.1,2.4,2.4c0,1.3-1.1,2.4-2.4,2.4c-1.3,0-2.4-1.1-2.4-2.4
							C98.3,75.9,99.4,74.9,100.7,74.9 M100.7,74.3c-1.6,0-2.9,1.3-2.9,2.9c0,1.6,1.3,2.9,2.9,2.9c1.6,0,2.9-1.3,2.9-2.9
							C103.6,75.6,102.3,74.3,100.7,74.3z"/>
					</g>
					<circle cx="100.7" cy="77.2" r="1.2"/>
				</g>
			</g>
			<path class="st11" d="M82.9,89.7c-0.7,0.4-0.9,1.2-0.1,1.7c1.2,0.9,3,1,4.5,1c1.5,0,3.4-0.1,4.7-1c0.7-0.4,1.2-1.8,0.2-2.2
				c-0.2-0.1-0.5,0-0.4,0.3c0,0.3,0.3,0.6,0.3,0.9c-0.1,0.4-0.7,0.6-1,0.7c-1,0.4-2.1,0.4-3.2,0.5c-0.9,0-5.8,0.1-4.8-1.7
				C83,89.7,82.9,89.6,82.9,89.7"/>
			<g>
				<path class="st3" d="M64.1,67.1c5.7-0.8,11.1-1.6,16.3,1.3c0.5,0.3,0.9-0.5,0.5-0.8c-4.4-2.7-12.4-3.8-16.8-0.7
					C64,67,64,67.1,64.1,67.1"/>
				<path class="st3" d="M111.5,66.9c-4.4-3.1-12.5-2-16.8,0.7c-0.5,0.3-0.1,1.1,0.5,0.8c5.3-3,10.7-2.1,16.3-1.3
					C111.6,67.1,111.6,67,111.5,66.9"/>
			</g>
		</g>
		<path class="st7" d="M99.9,96.7c-6.7,4-16.3,5.3-23.3,1L99.9,96.7"/>
		<g>
			<path class="st3" d="M107.6,44.2c-0.3,2.5-0.9,4.6-1.7,6.5c-0.5-0.8-1.6-1.2-2.4-0.5c-0.5-1.2-2.3-1.4-3.2-0.2
				c-0.1,0.2-0.2,0.4-0.3,0.5c-0.3-1.3-2.1-1.9-3.1-1c0,0,0-0.1,0-0.1c-0.3-1.6-2.5-1.6-3.3-0.4c-0.6,0.9-1.1,1.8-1.5,2.8
				c-0.1-0.2-0.2-0.4-0.4-0.6c0.4-0.6,0.7-1.2,1-1.8c1-2.2-1.3-3.9-3-2.9c-0.4-0.2-0.8-0.2-1.3,0C87.3,47,86.3,48,85.3,49
				c-0.3-0.5-0.8-0.8-1.4-0.6c-2.7,1-4.9,2.6-7.5,3.8c0-0.1,0-0.3-0.1-0.4c-0.2-0.8-1-1.2-1.8-1c-0.2,0.1-0.4,0.2-0.6,0.4
				c0,0,0,0,0,0c0,0,0,0.1-0.1,0.1c0,0,0,0,0,0c-0.1,0.1-0.1,0.1-0.2,0.2c0,0,0,0,0,0c0,0.1-0.1,0.1-0.1,0.2
				c-0.2-0.1-0.4-0.2-0.6-0.2c0.4-0.4,0.7-0.8,1-1.2c0.5-0.6-0.3-1.7-1.1-1.4c-0.2,0.1-0.4,0.2-0.7,0.3c0.4-0.7,0.8-1.4,1-2.1
				c0.1-0.5-0.2-1-0.6-1.3c-0.2-0.4-0.7-0.7-1.2-0.4c-3.6,2.2-6.5,5.4-9.9,7.9c-0.5,0.2-1,0.3-1.5,0.4c-0.6,0.1-0.7,0.9-0.4,1.3
				c0,0-0.1,0.1-0.1,0.1c-0.4,0.4-0.8,0.9-1.2,1.4c0.2-0.4,0.4-0.9,0.2-1.5c0-0.1,0-0.2-0.1-0.3c0-0.4-0.2-0.8-0.4-1.1
				c0.5-0.6,0.9-1.2,1.3-1.9c0.6-0.9-0.6-1.9-1.5-1.5c-0.5,0.3-1,0.6-1.5,0.9c1.6-3.1,3.8-5.8,6.4-8.1c4.1-3.7,8.3-3.7,13.4-2.7
				c1.4,0.3,2-1.4,0.9-2.2c-1.6-1.2-3.3-1.8-5-2c3-0.4,6.1-0.1,9,1c1,0.4,2-0.7,1.7-1.7c-1.3-4.4-7.2-3.8-10.8-3.3
				c-3.3,0.5-6.5,1.5-9.4,3.1c-0.3,0-0.6,0-1,0.2c-1.7,0.8-3.5,1.7-3.5,1.7c-14.6,9-15.4,40-9.3,46.4c0,0.1,1.9,2.2,2.5,0.9
				c1.7-3.3,2.2-6.9,4.3-10c2-3.1,5.5-4.6,8.9-5.6c6.7-1.8,13.9-1.7,20.7-2.8c11.1-1.8,27.2-8,24.1-22.2
				C109.2,42.8,107.7,43.2,107.6,44.2 M76.2,58.4C76.2,58.4,76.2,58.4,76.2,58.4C76.2,58.4,76.2,58.4,76.2,58.4
				C76.2,58.4,76.2,58.4,76.2,58.4 M93.5,58.7C93.5,58.6,93.5,58.6,93.5,58.7C93.5,58.6,93.5,58.6,93.5,58.7
				C93.5,58.6,93.5,58.7,93.5,58.7"/>
			<path class="st3" d="M127.5,47.1c-0.6-4-4-10.2-8.9-7.3c-0.6,0.4-0.5,1.4,0.2,1.6c0.6,0.2,1.2,0.4,1.7,0.6
				c-0.2,0.3-0.3,0.6-0.1,1c1.5,2.5,2,5.1,2.1,7.8c-0.1,0.2-0.2,0.4-0.2,0.7c-0.1,3.2-0.9,6.7-0.6,9.9c0.1,0.5,0.5,1,0.9,1.1
				c-0.9,3.5-1.7,6.7-1.6,8.9c0.1,1.1,1.5,1.3,1.9,0.3C125.9,64.2,128.7,55.2,127.5,47.1"/>
		</g>
	</g>
</g>
</svg>
