<?xml version="1.0" encoding="utf-8"?>
<!-- Generator: Adobe Illustrator 20.1.0, SVG Export Plug-In . SVG Version: 6.00 Build 0)  -->
<svg version="1.1" id="Layer_1" xmlns="http://www.w3.org/2000/svg" xmlns:xlink="http://www.w3.org/1999/xlink" x="0px" y="0px"
	 viewBox="0 0 174 174" style="enable-background:new 0 0 174 174;" xml:space="preserve">
<style type="text/css">
	.st0{clip-path:url(#SVGID_2_);fill:#CE8A9E;}
	.st1{clip-path:url(#SVGID_4_);}
	.st2{fill:#924A0B;}
	.st3{fill:#179E85;stroke:#179E85;stroke-width:1.122;stroke-linecap:round;stroke-linejoin:round;stroke-miterlimit:10;}
	.st4{fill:#FFC785;}
	.st5{fill:#FFFFFF;}
	.st6{fill:url(#SVGID_5_);}
	.st7{fill:#2E6232;}
	.st8{fill:url(#SVGID_6_);}
	.st9{fill:#E48F67;}
	.st10{fill:#F0463A;}
</style>
<g>
	<defs>
		<ellipse id="SVGID_1_" cx="87" cy="87" rx="87" ry="87"/>
	</defs>
	<clipPath id="SVGID_2_">
		<use xlink:href="#SVGID_1_"  style="overflow:visible;"/>
	</clipPath>
	<ellipse class="st0" cx="87" cy="87" rx="87" ry="87"/>
</g>
<g>
	<defs>
		<ellipse id="SVGID_3_" cx="87" cy="87" rx="87" ry="87"/>
	</defs>
	<clipPath id="SVGID_4_">
		<use xlink:href="#SVGID_3_"  style="overflow:visible;"/>
	</clipPath>
	<g class="st1">
		<g>
			<path class="st2" d="M122.3,143.2c6.9-78.8,0.6-107.8-34.4-106.8c-45.5,1.2-45.3,40.4-33.1,109.4
				C75.1,143.8,107.4,143,122.3,143.2"/>
			<path class="st3" d="M98.7,128.5c-0.3,0.4-26.2,0.8-26.5,1.2c-8.2,11.6-25.8,16.7-39.8,19.9c-14,3.1-14.5,20.8-14.5,32.6h136
				c0-11.8-0.3-29.5-14.5-32.6C125.1,146.4,106.5,140.7,98.7,128.5L98.7,128.5z"/>
			<g>
				<path class="st4" d="M72.2,103.6V126v11c-4.7,8.9,8.6,37.3,13.7,37.2c4.8-0.1,17.9-26,13.5-37.2v-11v-22.4
					C99.5,85.6,72.2,85.6,72.2,103.6"/>
				<path class="st4" d="M121.9,88.4c-2.7-1.2-6.6,1.7-8.6,6.4c-2,4.7-1.5,9.5,1.3,10.7c2.7,1.2,6.6-1.7,8.6-6.4
					C125.3,94.4,124.7,89.6,121.9,88.4"/>
				<path class="st4" d="M49.7,88.4c2.7-1.2,6.6,1.7,8.6,6.4c2,4.7,1.5,9.5-1.3,10.7c-2.7,1.2-6.6-1.7-8.6-6.4
					C46.4,94.4,47,89.6,49.7,88.4"/>
			</g>
			<path class="st2" d="M51.5,92.4C44.6,54.6,67,42.5,85.9,42.5c21.3,0,43.3,16.3,33.1,51.1c-20.3-1-38.8-13-56.7-36.8
				C59.2,69,57.1,84.7,51.5,92.4"/>
			<path class="st4" d="M85.9,126.7c-8.9,0-27.6-14-33.4-33.9c-5.9-20.2,5.2-49.1,33.4-49.1c28.2,0,39.3,28.9,33.4,49.1
				C113.5,112.8,94.7,126.7,85.9,126.7"/>
		</g>
		<g>
			<g>
				<path class="st5" d="M66.7,87.2c0,0,1.5,2.5,6.1,2.5c4.6,0,5.4-2.2,5.4-2.9c0,0-1.8-3-5.4-3C69.3,83.8,66.7,87.2,66.7,87.2"/>
				<g>
					<g>
						
							<radialGradient id="SVGID_5_" cx="72.28" cy="89.31" r="2.441" gradientTransform="matrix(1 0 0 -1 0 176)" gradientUnits="userSpaceOnUse">
							<stop  offset="0" style="stop-color:#2E6232"/>
							<stop  offset="1.900000e-02" style="stop-color:#326834"/>
							<stop  offset="0.106" style="stop-color:#407D3E"/>
							<stop  offset="0.209" style="stop-color:#4B8E45"/>
							<stop  offset="0.336" style="stop-color:#529A4A"/>
							<stop  offset="0.514" style="stop-color:#57A14D"/>
							<stop  offset="1" style="stop-color:#58A34E"/>
						</radialGradient>
						<circle class="st6" cx="72.6" cy="86.7" r="2.6"/>
						<path class="st7" d="M72.6,84.4c1.3,0,2.4,1.1,2.4,2.4c0,1.3-1.1,2.4-2.4,2.4c-1.3,0-2.4-1.1-2.4-2.4
							C70.3,85.4,71.3,84.4,72.6,84.4 M72.6,83.9c-1.6,0-2.9,1.3-2.9,2.9c0,1.6,1.3,2.9,2.9,2.9c1.6,0,2.9-1.3,2.9-2.9
							C75.5,85.1,74.2,83.9,72.6,83.9z"/>
					</g>
					<circle cx="72.6" cy="86.7" r="1.2"/>
				</g>
			</g>
			<g>
				<path class="st5" d="M104,87.2c0,0-1.5,2.5-6.1,2.5c-4.6,0-5.4-2.2-5.4-2.9c0,0,1.8-3,5.4-3S104,87.2,104,87.2"/>
				<g>
					<g>
						
							<radialGradient id="SVGID_6_" cx="-30.309" cy="89.265" r="2.619" gradientTransform="matrix(-1 0 0 -1 67.85 176)" gradientUnits="userSpaceOnUse">
							<stop  offset="0" style="stop-color:#2E6232"/>
							<stop  offset="1.900000e-02" style="stop-color:#326834"/>
							<stop  offset="0.106" style="stop-color:#407D3E"/>
							<stop  offset="0.209" style="stop-color:#4B8E45"/>
							<stop  offset="0.336" style="stop-color:#529A4A"/>
							<stop  offset="0.514" style="stop-color:#57A14D"/>
							<stop  offset="1" style="stop-color:#58A34E"/>
						</radialGradient>
						<path class="st8" d="M98.2,89.3c-1.4,0-2.6-1.2-2.6-2.6s1.2-2.6,2.6-2.6c1.4,0,2.6,1.2,2.6,2.6S99.6,89.3,98.2,89.3"/>
						<path class="st7" d="M98.2,84.4c1.3,0,2.4,1.1,2.4,2.4s-1.1,2.4-2.4,2.4c-1.3,0-2.4-1.1-2.4-2.4
							C95.8,85.4,96.9,84.4,98.2,84.4 M98.2,83.9c-1.6,0-2.9,1.3-2.9,2.9s1.3,2.9,2.9,2.9c1.6,0,2.9-1.3,2.9-2.9
							C101,85.1,99.7,83.9,98.2,83.9z"/>
					</g>
					<circle cx="98.2" cy="86.7" r="1.2"/>
				</g>
			</g>
			<path class="st9" d="M80.3,97.2c-0.7,0.4-0.9,1.2-0.1,1.7c1.2,0.9,3,1,4.5,1c1.5,0,3.4-0.1,4.7-1c0.7-0.4,1.2-1.8,0.2-2.2
				c-0.2-0.1-0.5,0-0.4,0.3c0,0.3,0.3,0.6,0.3,0.9c-0.1,0.4-0.7,0.6-1,0.7c-1,0.4-2.1,0.4-3.2,0.5c-0.9,0-5.8,0.1-4.8-1.7
				C80.5,97.3,80.4,97.2,80.3,97.2"/>
			<g>
				<path class="st2" d="M61.6,80.6c5.5-1.2,11.3-1.7,16.4,1.2c0.3,0.2,0.6-0.3,0.3-0.5C73.8,78.5,66.2,77.7,61.6,80.6
					C61.5,80.5,61.5,80.6,61.6,80.6"/>
				<path class="st2" d="M109,80.5c-4.7-2.8-12.3-2-16.8,0.8c-0.3,0.2,0,0.7,0.3,0.5C97.7,78.9,103.5,79.3,109,80.5
					C109,80.6,109.1,80.5,109,80.5"/>
			</g>
		</g>
		<path class="st2" d="M121.5,74.5c1,0,1-1.5,0-1.5c-0.4,0-0.6,0.2-0.7,0.5c-0.5-2.5-1.1-4.9-1.7-7.3c0.2-0.4,0.1-1-0.1-1.5
			c-1.6-2.8-3.4-5.5-5.4-8.1c-0.7-1.5-1.8-2.8-2.5-4.4c-0.4-0.9-1.2-1.1-1.9-0.9c-0.5-0.5-0.9-1-1.4-1.5c-0.6-0.6-1.2-0.7-1.8-0.5
			c-0.6-0.7-1.3-1.4-2-2c-0.4-0.4-0.8-0.5-1.2-0.6c-0.1-0.2-0.3-0.4-0.4-0.6c-0.9-1.3-2.3-1.1-3.1-0.3c-0.1-0.1-0.3-0.3-0.4-0.4
			c-0.5-0.5-1.3-0.6-2-0.4c-1.1-1.1-2.3-2.1-3.6-2.9c-1.1-0.6-2-0.2-2.5,0.6c-0.5-0.4-1.2-0.3-1.7,0c-0.1-0.2-0.2-0.3-0.3-0.5
			c-0.8-1.2-2.2-0.9-2.9,0c-0.2,0-0.4-0.1-0.7-0.1c-0.4-0.4-0.8-0.8-1.2-1.2c-0.9-0.8-2.3-0.4-2.7,0.6c-0.9-0.2-1.8-0.3-2.7-0.6
			c-1.4-0.4-2.3,0.9-2.2,2c0,0-0.1,0-0.1,0c-1.9,0-4,0.7-4.7,1.8c-0.4,0.4-0.7,0.9-0.5,1.5c0.1,0.2,0.2,0.5,0.3,0.7
			c-0.2-0.2-0.4-0.4-0.5-0.7c-0.9-1.1-2.2-0.2-2.4,0.9c-0.7-0.2-1.4,0.2-1.7,0.9c-0.2-0.2-0.3-0.3-0.5-0.5c-0.9-0.8-2.8,0-2.3,1.3
			c0.2,0.6,0.5,1.2,0.7,1.8c-0.2-0.3-0.4-0.5-0.6-0.8c-1-1.3-2.8-0.2-2.1,1.3c0.1,0.3,0.3,0.6,0.4,0.9c-0.1,0.2-0.2,0.4-0.2,0.7
			c0,0,0,0-0.1-0.1c-0.8-0.9-2-0.1-1.9,0.9c-0.1-0.1-0.2-0.2-0.3-0.4c-0.9-0.9-2.4,0.3-1.8,1.4c0.3,0.5,0.6,0.9,0.9,1.4
			c-0.2,0.1-0.3,0.2-0.4,0.3c0,0,0,0,0,0c-0.8-1-2.3,0.3-1.7,1.3c0.3,0.4,0.5,0.9,0.8,1.3c-0.4-0.4-0.8-0.7-1.1-1.1
			c-0.9-0.9-2.1,0.2-1.7,1.3c0.1,0.3,0.3,0.6,0.5,1c-0.3,0.2-0.5,0.6-0.3,1c0.1,0.2,0.2,0.5,0.3,0.7c-0.5,0-1,0.4-1,0.9
			c-0.6,0-1,0.6-0.7,1.2c0,0.2,0.1,0.4,0.3,0.6c-0.3-0.1-0.5,0-0.8,0.1c-0.7-0.6-1.4-1.2-2.1-1.9c-0.1-0.1-0.4,0-0.3,0.2
			c0.4,1.2,1,2.3,1.6,3.2c-1.8,6.1-2.6,12.5-1.8,18.7c0,0,0,0,0,0.1c0,0,0,0,0,0c0,0,0,0.1,0,0.1c-0.1,4.6,0.6,9.1,3.4,12.9
			c0.4,0.5,1.2,0.8,1.7,0.2c2.6-2.9,1.8-7,1.2-10.6c-1.1-6.1-1.3-12.3-1.3-18.5c6.8,3.9,17.6-0.1,24.4-2.8c9-3.5,25.4-7.5,34.4-1
			c0,0,0.1,0.1,0.1,0.1c0.1,0.1,0.3,0.2,0.4,0.3c0.3,0.2,0.5,0.4,0.8,0.6c0.2,0.2,0.3,0.4,0.5,0.6c0.1,0.1,0.1,0.1,0.2,0.2
			c0.1,1.5,0.2,3,0.3,4.5c0,4.1-0.4,8.3-0.5,12.3c0,0.9-0.5,5.6-0.6,6.7c-0.1,1.7,0.3,3.8,1.5,5c0.8,0.8,2,0.4,2.5-0.4
			c0.1-0.2,1-1.1,1.1-1.5c2-6.3,1.6-13,0.4-19.5C121,74.4,121.2,74.5,121.5,74.5"/>
		<g>
			<path class="st10" d="M95.3,111.5c0,0-7.7-4.7-8.8-3.2c-0.1,0.1-0.1,0.2-0.2,0.3c-0.1-0.1-0.1-0.2-0.2-0.3
				c-1.1-1.5-8.8,3.2-8.8,3.2s4.3,4,9,3.9C91.3,115.6,95.3,111.5,95.3,111.5C95.3,111.5,95.3,111.5,95.3,111.5
				C95.3,111.5,95.3,111.5,95.3,111.5 M91.8,111.5c0,0-2.7,1.1-5.7,1.1c-1.8,0-3.6-0.6-5.2-1.3c0,0,2.5-1.2,5.5-1.2
				C88.2,110.1,90.2,111,91.8,111.5"/>
			<path class="st5" d="M86.3,110.1c-2.9,0-5.5,1.2-5.5,1.2c1.6,0.7,3.4,1.3,5.2,1.3c3,0,5.7-1.1,5.7-1.1
				C90.2,111,88.2,110.1,86.3,110.1"/>
		</g>
	</g>
</g>
</svg>
