<?xml version="1.0" encoding="utf-8"?>
<!-- Generator: Adobe Illustrator 20.1.0, SVG Export Plug-In . SVG Version: 6.00 Build 0)  -->
<svg version="1.1" id="Layer_1" xmlns="http://www.w3.org/2000/svg" xmlns:xlink="http://www.w3.org/1999/xlink" x="0px" y="0px"
	 viewBox="0 0 174 174" style="enable-background:new 0 0 174 174;" xml:space="preserve">
<style type="text/css">
	.st0{clip-path:url(#SVGID_2_);fill:#D888BA;}
	.st1{clip-path:url(#SVGID_4_);}
	.st2{fill:#F5BE92;}
	.st3{fill:#F9B54F;stroke:#F9B54F;stroke-width:1.084;stroke-linecap:round;stroke-linejoin:round;stroke-miterlimit:10;}
	.st4{fill:#FFFFFF;stroke:#FFFFFF;stroke-width:2;stroke-linecap:round;stroke-miterlimit:10;}
	.st5{fill:#FFFFFF;}
	.st6{fill:url(#SVGID_5_);}
	.st7{fill:#624A2E;}
	.st8{fill:url(#SVGID_6_);}
	.st9{fill:#E48F67;}
	.st10{fill:#474748;}
</style>
<g>
	<defs>
		<ellipse id="SVGID_1_" cx="87" cy="87" rx="87" ry="87"/>
	</defs>
	<clipPath id="SVGID_2_">
		<use xlink:href="#SVGID_1_"  style="overflow:visible;"/>
	</clipPath>
	<ellipse class="st0" cx="87" cy="87" rx="87" ry="87"/>
</g>
<g>
	<defs>
		<ellipse id="SVGID_3_" cx="87" cy="87" rx="87" ry="87"/>
	</defs>
	<clipPath id="SVGID_4_">
		<use xlink:href="#SVGID_3_"  style="overflow:visible;"/>
	</clipPath>
	<g class="st1">
		<g>
			<g>
				<ellipse class="st2" cx="54.8" cy="72.7" rx="7.9" ry="4.6"/>
				<ellipse class="st2" cx="120.2" cy="72.7" rx="7.9" ry="4.6"/>
			</g>
			<path class="st3" d="M74.8,115.4c-28.1,12.3-36.6,18.9-39.9,21.9c-5.1,4.6-8.2,22.1-11.2,36.5h63.7H151c-3-14.4-5.7-32-10.8-36.5
				c-3.3-3-11.5-9.4-39.6-21.7L74.8,115.4L74.8,115.4z"/>
			<g>
				<path class="st2" d="M73.9,90.8v20.9v12.5c7.5,8.9,19.8,9.2,27.3,0v-12.5V90.8C101.2,74,73.9,74,73.9,90.8"/>
				<path class="st2" d="M87.5,34.8c-45.9,0-29.4,59.8-26.4,64.2c3.3,4.9,19,13.4,26.4,13.4s23.1-9.6,26.4-14.5
					C116.9,93.5,133.4,34.8,87.5,34.8"/>
			</g>
			<g>
				<path class="st4" d="M72.6,115.1l-9.7,5.2l14.1,19.5l10.7-10.1L72.6,115.1L72.6,115.1z"/>
				<path class="st4" d="M102.6,115.1l9.7,5.2l-14.1,19.5l-10.7-10.1L102.6,115.1L102.6,115.1z"/>
			</g>
		</g>
		<g>
			<g>
				<path class="st5" d="M68.8,76.8c0,0,1.5,2.5,6.1,2.5s5.4-2.2,5.4-2.9c0,0-1.8-3-5.4-3C71.3,73.5,68.8,76.8,68.8,76.8"/>
				<g>
					<g>
						
							<radialGradient id="SVGID_5_" cx="74.69" cy="99.59" r="2.615" gradientTransform="matrix(1 0 0 -1 0 176)" gradientUnits="userSpaceOnUse">
							<stop  offset="0" style="stop-color:#624A2E"/>
							<stop  offset="3.600000e-02" style="stop-color:#6D5633"/>
							<stop  offset="0.122" style="stop-color:#816B3D"/>
							<stop  offset="0.223" style="stop-color:#907C45"/>
							<stop  offset="0.348" style="stop-color:#9B884A"/>
							<stop  offset="0.523" style="stop-color:#A18F4D"/>
							<stop  offset="1" style="stop-color:#A3914E"/>
						</radialGradient>
						<circle class="st6" cx="74.7" cy="76.4" r="2.6"/>
						<path class="st7" d="M74.7,74.1c1.3,0,2.4,1.1,2.4,2.4s-1.1,2.4-2.4,2.4s-2.4-1.1-2.4-2.4S73.4,74.1,74.7,74.1 M74.7,73.5
							c-1.6,0-2.9,1.3-2.9,2.9s1.3,2.9,2.9,2.9c1.6,0,2.9-1.3,2.9-2.9S76.3,73.5,74.7,73.5z"/>
					</g>
					<circle cx="74.7" cy="76.4" r="1.2"/>
				</g>
			</g>
			<g>
				<path class="st5" d="M106.1,76.8c0,0-1.5,2.5-6.1,2.5c-4.6,0-5.4-2.2-5.4-2.9c0,0,1.8-3,5.4-3C103.6,73.5,106.1,76.8,106.1,76.8
					"/>
				<g>
					<g>
						
							<radialGradient id="SVGID_6_" cx="-32.384" cy="99.59" r="2.615" gradientTransform="matrix(-1 0 0 -1 67.85 176)" gradientUnits="userSpaceOnUse">
							<stop  offset="0" style="stop-color:#624A2E"/>
							<stop  offset="3.600000e-02" style="stop-color:#6D5633"/>
							<stop  offset="0.122" style="stop-color:#816B3D"/>
							<stop  offset="0.223" style="stop-color:#907C45"/>
							<stop  offset="0.348" style="stop-color:#9B884A"/>
							<stop  offset="0.523" style="stop-color:#A18F4D"/>
							<stop  offset="1" style="stop-color:#A3914E"/>
						</radialGradient>
						<circle class="st8" cx="100.2" cy="76.4" r="2.6"/>
						<path class="st7" d="M100.2,74.1c1.3,0,2.4,1.1,2.4,2.4s-1.1,2.4-2.4,2.4s-2.4-1.1-2.4-2.4S98.9,74.1,100.2,74.1 M100.2,73.5
							c-1.6,0-2.9,1.3-2.9,2.9s1.3,2.9,2.9,2.9s2.9-1.3,2.9-2.9C103.1,74.8,101.8,73.5,100.2,73.5z"/>
					</g>
					<circle cx="100.2" cy="76.4" r="1.2"/>
				</g>
			</g>
			<path class="st9" d="M82.4,88.9c-0.7,0.4-0.9,1.2-0.1,1.7c1.2,0.9,3,1,4.5,1c1.5,0,3.4-0.1,4.7-1c0.7-0.4,1.2-1.8,0.2-2.2
				c-0.2-0.1-0.5,0-0.4,0.3c0,0.3,0.3,0.6,0.3,0.9c-0.1,0.4-0.7,0.6-1,0.7c-1,0.4-2.1,0.4-3.2,0.5c-0.9,0-5.8,0.1-4.8-1.7
				C82.6,89,82.5,88.9,82.4,88.9"/>
			<path class="st5" d="M96.3,99.9c-4.9,3-12.1,4-17.3,0.7L96.3,99.9"/>
			<g>
				<path class="st10" d="M63.7,66.3c5.7-0.8,11.1-1.6,16.3,1.3c0.5,0.3,0.9-0.5,0.5-0.8C76.1,64.1,68,63,63.6,66.2
					C63.5,66.2,63.6,66.3,63.7,66.3"/>
				<path class="st10" d="M111.1,66.2c-4.4-3.1-12.5-2-16.8,0.7c-0.5,0.3-0.1,1.1,0.5,0.8c5.3-3,10.7-2.1,16.3-1.3
					C111.1,66.3,111.2,66.2,111.1,66.2"/>
			</g>
		</g>
		<g>
			<path class="st10" d="M118.7,82.8c-0.1-0.1-0.2-0.2-0.4-0.3c0.1-0.7,0.3-1.5,0.4-2.2c-0.2,0-0.3,0-0.4,0c0.5-2,0.3-4.1,0.4-6.2
				c0.2-3,1.2-6.1,0.8-9.1c-0.1-0.6-0.8-0.8-1.1-0.3c-1.3,2-1.6,4.7-1.9,7.1c-0.3,2.6-1,5.9-0.4,8.6c-0.1,0-0.1,0.1-0.1,0.1
				c0,0,0,0,0,0c0,0.7-0.2,1.3-0.6,1.8c-0.2,0.3-0.3,0.5-0.5,0.8c-1.3,3.1-3.8,5.9-6.3,7.9c-0.1,0.1-0.3,0.2-0.5,0.4
				c-1.9,2-4.4,3.7-7.1,4.2c-0.7,0.1-1.3,0-1.8-0.3c-0.1,0-0.1,0-0.2,0c0,0-0.1,0-0.1,0.1c-6.2-3.1-16.6-3-22.6,0.2
				c-0.4,0.3-0.8,0.6-1.2,0.8c-0.4,0.5-0.9,0.8-1.7,0.9c-3.2,0.1-5.7-2.7-7.5-5c-1.7-2.3-3.2-4.8-4.3-7.5c0,0,0,0,0,0
				c-0.1,0-0.1-0.1-0.2-0.1c0-0.1,0-0.3,0.1-0.4c-0.1-0.4-0.1-0.8,0-1.2c-0.1-1-0.4-1.9-1.1-2.5c0,0,0,0,0,0c0.2-2.3-0.3-4.7-0.7-7
				c-0.6-2.9-1.3-6.2-3.2-8.5c-0.3-0.4-1.2-0.1-1.1,0.5c0.3,2.6,1.4,5,2,7.6c0.5,2.3,0.6,4.5,0.8,6.8c-0.2,0-0.3,0-0.5,0.1
				c-0.8,0.3-1.5,1.1-1.4,2c-0.2,0.1-0.4,0.2-0.5,0.4c-0.3,0.6-0.3,1.1-0.2,1.7c0.1,0.5,0.3,1.1,0.8,1.4c-0.1,0.5-0.1,1,0,1.4
				c0,0.2,0.1,0.4,0.3,0.5c0.1,0.4,0.3,0.8,0.5,1.1c0.1,0.1,0.2,0.2,0.3,0.2c-0.6,1-0.8,2.2-0.8,3.2c0,1.3,0.7,3.8,2.2,3.8
				c-0.4,2,1,4.4,2.8,5.4c-0.1,1.2,0.5,2.4,1.4,3.2c0.5,0.5,1.2,1,1.9,1.2c0.5,0.1,0.8,0.1,1.2,0c0.2,1.3,0.9,2.5,1.8,3.3
				c0.7,0.6,2.2,1.4,3.5,1.4c0,1.1,0.9,2.1,2,2.3c0.6,0.1,1.2,0.1,1.7,0.1c0.4,0,1-0.3,1.4-0.6l0.1,0.1c0.4,2.7,4,4.8,6.5,3.6
				c0.4,0.8,1.1,1.5,1.9,1.7c1.3,0.3,1.7-0.6,2.8-0.7c2-0.2,3.8,0.2,4.9-1.5c1.3,1.3,4.1,0.5,5.5-0.1c1.4-0.7,3.8-2.7,4.1-4.6
				c0.9-0.1,2-0.5,2.6-0.8c0.8-0.4,2.3-1.6,2.7-2.8c0.8,0.1,1.7-0.2,2.5-0.5c1.4-0.7,2.4-2.1,2.2-3.7c0-0.1,0-0.1-0.1-0.1
				c0.7-0.2,1.2-0.8,1.6-1.4c0.4-0.7,0.8-1.2,1.4-1.6c0.4-0.3,0.9-0.7,1.2-1.2c0.8-1.5,1.4-3.7,0.8-5.4c0.9-0.4,1.3-1.4,1.5-2.3
				c0.2-0.8,0.4-2.1,0-3C119.3,85.8,119.4,84,118.7,82.8 M98.3,99.8c-0.1,0.1-0.2,0.2-0.2,0.3c-0.3,0.1-0.6,0.4-0.8,0.7
				c-0.2,0.4-0.2,0.8-0.1,1.2c-0.2,0.1-0.5,0.2-0.7,0.4c-1.3,1-1.7,2.3-1.7,3.7c-0.3,0-0.6,0.1-0.9,0.2c-0.6,0-1.2,0.2-1.7,0.4
				c-0.4,0.2-0.8,0.5-1.1,0.9c0-0.1-0.1-0.2-0.1-0.3c-0.4-0.8-1.5-1.1-2.3-1.2c-0.9,0-1.7,0.5-2.4,1c-0.3,0.2-0.5,0.5-0.7,0.8
				c-0.2-0.2-0.3-0.3-0.5-0.4c-0.7-0.5-1.6-0.5-2.4-0.3c-0.1,0-0.3,0.1-0.4,0.1c-1.1-1.6-2.6-3-4.6-2.6c-0.3,0.1-0.5,0.2-0.7,0.3
				c-0.1-0.1-0.1-0.2-0.2-0.4c-0.1-0.1-0.1-0.1-0.2-0.2c0.1-0.2,0.1-0.5,0.2-0.7c0.6-1.5,0.8-3.4-0.4-4.4c0.1-0.1,0.1-0.1,0.2-0.1
				c3.5-0.9,6.8-1.8,10.5-1.9C91.3,97.1,94.6,98.6,98.3,99.8C98.3,99.7,98.3,99.8,98.3,99.8"/>
			<path class="st10" d="M87.8,47.6c-0.2-0.5-0.6-0.5-0.9-0.3c-0.2-0.5-1-0.7-1.3-0.1c-1.1,1.7-2.4,3.1-4.5,3.3
				c-1.2,0.1-2.7-0.6-3.9-0.3c-0.1-0.5-0.9-0.8-1.3-0.2c-3.1,4.1-7.6,6.1-12.3,3.3c0,0-0.1,0-0.1,0c-0.3-0.7-1.5-0.5-1.5,0.3
				c0,2.1,0.2,4.2,0,6.4c-0.4,3-2.9,6-6.1,4c-0.5-1.7-1.4-3.2-1.8-5c-0.2-1-0.2-2.1,0-3.1c0.3-1.3,1.5-1.4,2.5-2
				c0.7-0.4,0.5-1.4-0.2-1.6c-0.3-0.1-0.6-0.1-0.9-0.1c-3.5-4.3,1.2-11,6-12c0.2,0.2,0.5,0.3,0.8,0.2c0.5-0.1,1-0.2,1.6-0.3
				c0.7,0,1.3,0.2,1.9,0c0.7-0.1,0.7-1,0.4-1.4c-0.3-0.4-0.8-0.6-1.3-0.7c2.8-3.8,9.7-3.5,14.1-2.6c0.2,0.1,0.3,0.1,0.5,0.1
				c0.1,0,0.3,0.1,0.4,0.1c0.8,0.2,1.5-1,0.6-1.4c0,0,0,0,0,0c0.8-1.6,1.7-2.5,3.7-3c1.5-0.4,2.9-0.4,4.4-0.4
				c0.8,0.2,1.5,0.6,2.2,0.8c1,0.3,1.7,1,2.6,1.5c0.6,0.4,1.4-0.2,1.2-0.9c-0.2-0.6-0.6-1.1-1-1.5c4.1-0.1,8.7,2.7,7.5,7.3
				c-0.1,0.2,0,0.4,0.1,0.6c0.1,0.3,0.4,0.6,0.8,0.5c2.9-0.9,5.6-1.1,8.5-0.4c1.4,0.3,2.9,1.1,3.8,2.3c1.1,1.5,0.2,3-0.1,4.5
				c-0.1,0.2,0,0.5,0.1,0.7c-0.1,0.4,0.2,0.7,0.7,0.8c5.7,0.1,7.2,6.9,3.6,10.7c-0.4,0.4-0.3,1.3,0.4,1.4c2.2,0.5,2.8,2.2,2.8,4.2
				c0,2.4-1.4,3.3-3.6,3.2c-1.2-1-1.6-2.4-1.4-4.3c0-0.3-0.3-0.7-0.6-0.8c-5-0.8-8.9-4.3-9.3-9.5c-0.1-0.5-0.8-0.8-1.1-0.4
				c-0.1-0.5-0.3-0.9-0.6-1.2c-0.3-0.3-0.6-0.2-0.8,0.1c-0.1,0-0.2,0-0.2,0.1C99.4,53.8,90.2,54,87.8,47.6"/>
			<path class="st10" d="M119,58.8c-0.7-0.1-0.8-1-0.4-1.4c3.5-3.8,2.1-10.6-3.6-10.7c-0.5,0-0.7-0.4-0.7-0.8
				c-0.1-0.2-0.2-0.4-0.1-0.7c0.3-1.5,1.2-3,0.1-4.5c-0.9-1.2-2.4-1.9-3.8-2.3c-2.9-0.7-5.7-0.5-8.5,0.4c-0.4,0.1-0.7-0.1-0.8-0.5
				c-0.1-0.2-0.2-0.4-0.1-0.6c1.2-4.5-3.4-7.4-7.5-7.3c0.5,0.4,0.9,0.9,1,1.5c0.2,0.7-0.6,1.3-1.2,0.9c-0.9-0.5-1.6-1.2-2.6-1.5
				c-0.8-0.2-1.5-0.6-2.2-0.8c-1.5,0-2.9,0-4.4,0.4c-2.1,0.6-2.9,1.5-3.7,3c0,0,0,0,0,0c0.8,0.4,0.2,1.6-0.6,1.4
				c-0.1,0-0.3,0-0.4-0.1c-0.2,0-0.4,0-0.5-0.1c-4.4-0.8-11.3-1.2-14.1,2.6c0.5,0.1,1,0.3,1.3,0.7c0.4,0.4,0.3,1.3-0.4,1.4
				c-0.7,0.1-1.3-0.1-1.9,0c-0.5,0-1.1,0.2-1.6,0.3c-0.4,0.1-0.6,0-0.8-0.2c-4.8,1-9.5,7.7-6,12c0.3,0,0.6,0,0.9,0.1
				c0.7,0.2,0.9,1.2,0.2,1.6c-1,0.6-2.2,0.7-2.5,2c-0.2,1-0.2,2.1,0,3.1c0.4,1.8,1.3,3.3,1.8,5c3.2,2,5.7-1,6.1-4
				c0.3-2.1,0-4.2,0-6.4c0-0.8,1.2-1,1.5-0.3c0,0,0.1,0,0.1,0c4.8,2.7,9.2,0.8,12.3-3.3c0.4-0.6,1.2-0.3,1.3,0.2
				c1.2-0.2,2.7,0.4,3.9,0.3c2.1-0.2,3.4-1.6,4.5-3.3c0.4-0.6,1.1-0.4,1.3,0.1c0.3-0.2,0.8-0.1,0.9,0.3c2.3,6.4,11.6,6.2,16.2,2.7
				c0.1-0.1,0.2-0.1,0.2-0.1c0.2-0.2,0.5-0.4,0.8-0.1c0.4,0.4,0.6,0.7,0.6,1.2c0.3-0.4,1-0.1,1.1,0.4c0.5,5.2,4.3,8.7,9.3,9.5
				c0.3,0,0.6,0.5,0.6,0.8c-0.2,1.9,0.2,3.3,1.4,4.3c2.2,0.1,3.5-0.8,3.6-3.2C121.8,61,121.2,59.3,119,58.8 M120.7,57.6
				c5.8,2.8,1.5,13.9-3.2,10.3c0,0,0,0-0.1-0.1c-1.7-1-2.3-3-2.3-5.1c-5.5-0.6-10.3-5-9.6-10.8c-0.2,0.2-0.6,0.1-0.8-0.1
				c-4.7,5.3-16.2,3.8-18.1-3.4c-0.7,2.1-2.3,3.4-4.6,3.8c-1.4,0.3-4.3,0.2-5.4-1c-2.9,4.6-8.2,6.5-12.8,3.7
				c0.6,2.8,0.6,6.2-0.9,8.5c-1.9,2.8-5.5,3.8-8,1.3c0,0,0,0,0,0c-2.4-1.1-3.5-5.3-3.4-7.8c0.1-1.8,1-4,2.6-4.7
				c-4.1-5.2,1.6-13.8,7.8-13.8c0.4-0.2,0.9-0.4,1.4-0.5c2.3-4.9,9.7-6.1,14.9-4.7c0.2-1.9,2.2-3.6,4-4.3c2.5-1,6.4-1.5,8.8,0
				c0.2,0.1,0.4,0.4,0.4,0.6c0,0,0,0,0,0c5-1.5,11.6,1.8,11.3,7.3c2.9-1.5,7.3-1,9.9,0.2c3.2,1.4,5.5,5,3.6,8.2
				C122.3,45.4,124.1,53,120.7,57.6"/>
			<path class="st10" d="M57,66.6c0.3,0.6,0.6,1.2,0.9,1.7c0.9,2.3,1.8,6.5,0.7,6.6c-0.6,0-1,1-0.4,1.3c2.6,1.1,3.3-1.8,3.3-3.8
				c0-2.2-0.8-5.8-2.5-7.4C58,63.8,56.2,65.3,57,66.6"/>
			<path class="st10" d="M117.7,76.3c-2.2-3.1,0.4-5.2,0.2-8.4c-0.1-1.2-1.8-2-2.5-0.7c-1.7,3.7-2.8,7.5,0,10.8
				C116.5,79.4,118.7,77.7,117.7,76.3"/>
		</g>
	</g>
</g>
</svg>
