<?xml version="1.0" encoding="utf-8"?>
<!-- Generator: Adobe Illustrator 20.1.0, SVG Export Plug-In . SVG Version: 6.00 Build 0)  -->
<svg version="1.1" id="Layer_1" xmlns="http://www.w3.org/2000/svg" xmlns:xlink="http://www.w3.org/1999/xlink" x="0px" y="0px"
	 viewBox="0 0 174 174" style="enable-background:new 0 0 174 174;" xml:space="preserve">
<style type="text/css">
	.st0{clip-path:url(#SVGID_2_);fill:#8FC9C3;}
	.st1{clip-path:url(#SVGID_4_);}
	.st2{fill:#9368A0;}
	.st3{fill:#DEA146;}
	.st4{fill:#FFC785;}
	.st5{fill:#FFFFFF;}
	.st6{fill:url(#SVGID_5_);}
	.st7{fill:#025784;}
	.st8{fill:url(#SVGID_6_);}
	.st9{fill:#E48F67;}
	.st10{fill:#5F5659;}
	.st11{fill:#F0463A;}
</style>
<g>
	<defs>
		<ellipse id="SVGID_1_" cx="87" cy="87" rx="87" ry="87"/>
	</defs>
	<clipPath id="SVGID_2_">
		<use xlink:href="#SVGID_1_"  style="overflow:visible;"/>
	</clipPath>
	<ellipse class="st0" cx="87" cy="87" rx="87" ry="87"/>
</g>
<g>
	<defs>
		<ellipse id="SVGID_3_" cx="87" cy="87" rx="87" ry="87"/>
	</defs>
	<clipPath id="SVGID_4_">
		<use xlink:href="#SVGID_3_"  style="overflow:visible;"/>
	</clipPath>
	<g class="st1">
		<g>
			<path class="st2" d="M98.9,122.2c-0.3,0.4-26.1,0.8-26.4,1.2C64.4,135,46.9,140.1,33,143.2c-13.9,3.1-14.4,20.7-14.4,32.4h135.2
				c0-11.7-0.3-29.3-14.4-32.4C125.2,140,106.6,134.3,98.9,122.2"/>
			<path class="st3" d="M132.8,117.7c-0.5-19.1-5.2-81.2-46.9-82.2c-38.7,1.2-45.7,63.3-44.4,83.5C58.2,121,116.3,121,132.8,117.7"
				/>
			<g>
				<path class="st4" d="M72.6,97.5v22.2v11c6.8,13.9,19,14.2,27.1,0v-11V97.5C99.7,79.6,72.6,79.6,72.6,97.5"/>
				<ellipse class="st4" cx="119.8" cy="90.9" rx="9.7" ry="5.6"/>
				<ellipse class="st4" cx="53.8" cy="90.9" rx="9.7" ry="5.6"/>
				<path class="st4" d="M86.2,120.4c-8.8,0-27.4-13.9-33.2-33.7c-5.8-20.1,5.1-48.8,33.2-48.8c28.1,0,39,28.8,33.2,48.8
					C113.6,106.6,95,120.4,86.2,120.4"/>
			</g>
		</g>
		<g>
			<g>
				<g>
					<path class="st5" d="M67.6,82.7c0,0,1.5,2.5,6.1,2.5c4.6,0,5.4-2.2,5.4-2.9c0,0-1.8-3-5.4-3S67.6,82.6,67.6,82.7"/>
					<g>
						<g>
							
								<radialGradient id="SVGID_5_" cx="73.05" cy="126.198" r="2.441" gradientTransform="matrix(1 0 0 -1 0 176)" gradientUnits="userSpaceOnUse">
								<stop  offset="0" style="stop-color:#2E624A"/>
								<stop  offset="7.000001e-03" style="stop-color:#2F634D"/>
								<stop  offset="8.000000e-02" style="stop-color:#396768"/>
								<stop  offset="0.161" style="stop-color:#416B7D"/>
								<stop  offset="0.258" style="stop-color:#476E8E"/>
								<stop  offset="0.377" style="stop-color:#4B709A"/>
								<stop  offset="0.544" style="stop-color:#4D71A1"/>
								<stop  offset="1" style="stop-color:#4E71A3"/>
							</radialGradient>
							<circle class="st6" cx="73.4" cy="82.2" r="2.6"/>
							<path class="st7" d="M73.4,79.9c1.3,0,2.4,1.1,2.4,2.4c0,1.3-1.1,2.4-2.4,2.4c-1.3,0-2.4-1.1-2.4-2.4S72.1,79.9,73.4,79.9
								 M73.4,79.3c-1.6,0-2.9,1.3-2.9,2.9c0,1.6,1.3,2.9,2.9,2.9c1.6,0,2.9-1.3,2.9-2.9C76.3,80.6,75,79.3,73.4,79.3z"/>
						</g>
						<circle cx="73.4" cy="82.2" r="1.2"/>
					</g>
				</g>
				<g>
					<path class="st5" d="M104.9,82.7c0,0-1.5,2.5-6.1,2.5c-4.6,0-5.4-2.2-5.4-2.9c0,0,1.8-3,5.4-3
						C102.3,79.3,104.9,82.6,104.9,82.7"/>
					<g>
						<g>
							
								<radialGradient id="SVGID_6_" cx="-31.139" cy="93.785" r="2.615" gradientTransform="matrix(-1 0 0 -1 67.85 176)" gradientUnits="userSpaceOnUse">
								<stop  offset="0" style="stop-color:#2E624A"/>
								<stop  offset="7.000001e-03" style="stop-color:#2F634D"/>
								<stop  offset="8.000000e-02" style="stop-color:#396768"/>
								<stop  offset="0.161" style="stop-color:#416B7D"/>
								<stop  offset="0.258" style="stop-color:#476E8E"/>
								<stop  offset="0.377" style="stop-color:#4B709A"/>
								<stop  offset="0.544" style="stop-color:#4D71A1"/>
								<stop  offset="1" style="stop-color:#4E71A3"/>
							</radialGradient>
							<path class="st8" d="M99,84.8c-1.4,0-2.6-1.2-2.6-2.6c0-1.4,1.2-2.6,2.6-2.6c1.4,0,2.6,1.2,2.6,2.6
								C101.6,83.7,100.4,84.8,99,84.8"/>
							<path class="st7" d="M99,79.9c1.3,0,2.4,1.1,2.4,2.4c0,1.3-1.1,2.4-2.4,2.4c-1.3,0-2.4-1.1-2.4-2.4S97.7,79.9,99,79.9
								 M99,79.3c-1.6,0-2.9,1.3-2.9,2.9c0,1.6,1.3,2.9,2.9,2.9c1.6,0,2.9-1.3,2.9-2.9C101.9,80.6,100.6,79.3,99,79.3z"/>
						</g>
						<circle cx="99" cy="82.2" r="1.2"/>
					</g>
				</g>
				<path class="st9" d="M81.2,94.7c-0.7,0.4-0.9,1.2-0.1,1.7c1.2,0.9,3,1,4.5,1c1.5,0,3.4-0.1,4.7-1c0.7-0.4,1.2-1.8,0.2-2.2
					c-0.2-0.1-0.5,0-0.4,0.3c0,0.3,0.3,0.6,0.3,0.9c-0.1,0.4-0.7,0.6-1,0.7c-1,0.4-2.1,0.4-3.2,0.5c-0.9,0-5.8,0.1-4.8-1.7
					C81.3,94.8,81.3,94.7,81.2,94.7"/>
				<g>
					<path class="st10" d="M62.4,74.1c5.5-1.2,11.3-1.7,16.4,1.2c0.3,0.2,0.6-0.3,0.3-0.5C74.6,72,67,71.2,62.4,74.1
						C62.3,74,62.4,74.1,62.4,74.1"/>
					<path class="st10" d="M109.8,74c-4.7-2.8-12.3-2-16.8,0.8c-0.3,0.2,0,0.7,0.3,0.5C98.5,72.4,104.3,72.8,109.8,74
						C109.9,74.1,109.9,74,109.8,74"/>
				</g>
			</g>
			<g>
				<path class="st11" d="M95.2,107L95.2,107c0.2-0.1,0.4-0.1,0.4-0.1c-0.2,0.1-0.5,0.1-0.8,0.1l-1.9-0.2c-2.6-0.6-5.4-2.2-5.4-2.2
					l-1,1.2l-1-1.2c0,0-5.1,3-8,2.3c3.8,3.5,8.7,3.3,8.7,3.3c4.6,0.1,9.2-3.3,9.2-3.3C95.5,106.9,95.4,107,95.2,107 M78.7,107.1
					C78.7,107.1,78.7,107.1,78.7,107.1c-0.5-0.1-0.8-0.2-0.9-0.2C77.9,106.9,78.3,107,78.7,107.1"/>
				<path class="st5" d="M86,108.8c-1.8,0-6-1-6-1.3c0-0.1,1.8-0.3,3.5-0.6c1.4-0.2,2.7-0.6,3.1-0.6c0.4,0,1.6,0.4,2.8,0.6
					c1.5,0.3,3,0.4,3.2,0.5C92.8,107.5,90,108.9,86,108.8"/>
			</g>
		</g>
		<path class="st2" d="M115.8,76.4c-4.4-1.3-9-2.2-13.6-1.9c-3.9,0.3-7.8,1-11,3.5c-0.1,0.1-0.3,0.2-0.5,0.2c-0.8,0-1.6-0.1-2.4-0.1
			c-2.6,0-5.1,0-7.7,0c-0.2,0-0.3-0.2-0.5-0.3c-1.8-0.9-3.6-2-5.5-2.5c-6.3-1.8-12.6-0.9-18.8,0.9c-1.7,0.5-1.8,1-0.6,2.3
			c1.9,2.1,3.9,4.1,5.8,6.3c3.7,4.3,8.3,6.4,14,5.7c3.4-0.4,6.4-1.5,7.6-5.1c0.5-1.5,0.6-3,1-4.8c1.3-0.4,3-0.4,4.6,0.1
			c-0.3,3.4,0.9,7.8,5.1,9.1c5.6,1.8,10.9,1.1,15.2-3c2.8-2.7,5.4-5.7,8.1-8.5C117.4,77.4,117.2,76.8,115.8,76.4 M78.1,88.8
			c-4.1,1.7-8.1,1.4-11.9-1c-2.6-1.7-4.5-4-5.3-7c-0.5-1.9,0-3.1,1.9-3.7c1.7-0.5,3.4-0.6,5.2-0.9c3,0.3,5.9,0.5,8.6,1.7
			c1.2,0.5,2.3,1.2,3.2,2.1C82.7,83,81.9,87.2,78.1,88.8 M110.4,80.7c-1.2,5.1-6.9,9.3-12.5,9.1c-1.6-0.1-3.2-0.4-4.7-1
			c-3.9-1.6-4.6-6-1.7-9c2.1-2.1,4.9-2.7,7.6-3.1c1.4-0.2,2.8-0.3,4.8-0.4c1.2,0.2,2.9,0.3,4.5,0.8
			C110.3,77.6,110.8,78.8,110.4,80.7"/>
		<g>
			<path class="st3" d="M83.8,53c3.9,17.7,22.5,27.7,38.6,24.3c-0.5-19.9-12.5-40.9-36.3-40.9c-25.5,0-37.5,24.2-36.2,45.2
				C66.3,83.8,70.8,74.5,83.8,53"/>
			<path class="st3" d="M117.8,90.2l-3.5,1.9c0,0,4-9.4,3.6-16.4l3.5-1.1C121.4,74.5,121.3,86.3,117.8,90.2"/>
		</g>
	</g>
</g>
</svg>
