<?xml version="1.0" encoding="utf-8"?>
<!-- Generator: Adobe Illustrator 20.1.0, SVG Export Plug-In . SVG Version: 6.00 Build 0)  -->
<svg version="1.1" id="Layer_1" xmlns="http://www.w3.org/2000/svg" xmlns:xlink="http://www.w3.org/1999/xlink" x="0px" y="0px"
	 viewBox="0 0 174 174" style="enable-background:new 0 0 174 174;" xml:space="preserve">
<style type="text/css">
	.st0{clip-path:url(#SVGID_2_);fill:#9F88BA;}
	.st1{clip-path:url(#SVGID_4_);}
	.st2{fill:#FFC785;}
	.st3{fill:#F5704D;}
	.st4{fill:#025784;stroke:#025784;stroke-width:1.084;stroke-linecap:round;stroke-linejoin:round;stroke-miterlimit:10;}
	.st5{fill:#F5BE92;}
	.st6{fill:#FFFFFF;stroke:#FFFFFF;stroke-width:2;stroke-linecap:round;stroke-miterlimit:10;}
	.st7{fill:#FFFFFF;}
	.st8{fill:url(#SVGID_5_);}
	.st9{fill:#2E4962;}
	.st10{fill:url(#SVGID_6_);}
	.st11{fill:#E48F67;}
</style>
<g>
	<defs>
		<ellipse id="SVGID_1_" cx="87" cy="87" rx="87" ry="87"/>
	</defs>
	<clipPath id="SVGID_2_">
		<use xlink:href="#SVGID_1_"  style="overflow:visible;"/>
	</clipPath>
	<ellipse class="st0" cx="87" cy="87" rx="87" ry="87"/>
</g>
<g>
	<defs>
		<ellipse id="SVGID_3_" cx="87" cy="87" rx="87" ry="87"/>
	</defs>
	<clipPath id="SVGID_4_">
		<use xlink:href="#SVGID_3_"  style="overflow:visible;"/>
	</clipPath>
	<g class="st1">
		<g>
			<g>
				<ellipse class="st2" cx="56.2" cy="72.9" rx="7.9" ry="4.6"/>
				<ellipse class="st2" cx="121.6" cy="72.9" rx="7.9" ry="4.6"/>
			</g>
			<path class="st3" d="M111.8,32.5c6.7,1.1,10.5,5.7,12.1,12c4.1,16.3-4.5,51.7-34.6,52.1c-15.5,0.2-26.7-3.7-30.7-16.3
				c-4.1-12.6-5.7-32.8,3.1-44.1C72.7,21.9,96.1,21.8,111.8,32.5"/>
			<path class="st4" d="M76.2,115.6c-28.1,12.3-36.6,18.9-39.9,21.9c-5.1,4.6-8.2,22.1-11.2,36.5h63.7h63.7
				c-3-14.4-5.7-32-10.8-36.5c-3.3-3-11.5-9.4-39.6-21.7L76.2,115.6L76.2,115.6z"/>
			<g>
				<path class="st5" d="M75.3,91v20.9v12.5c7.5,8.9,19.8,9.2,27.3,0v-12.5V91C102.6,74.2,75.3,74.2,75.3,91"/>
				<path class="st5" d="M89,35c-45.9,0-29.4,59.8-26.4,64.2c3.3,4.9,19,13.4,26.4,13.4s23.1-9.6,26.4-14.5
					C118.3,93.7,134.8,35,89,35"/>
			</g>
			<path class="st3" d="M66.6,49.4c8.1,4.9,14.3-2.4,21.6,0.7c7.3,3.1,28.2-5.4,32.4,27.8c6.9-24-4.7-44.1-31-45.3
				c-28-1.2-39.4,20.7-31.6,44.6C57.5,64.3,60.7,55.8,66.6,49.4"/>
			<g>
				<path class="st6" d="M74,115.3l-9.7,5.2L78.4,140L89,129.9L74,115.3L74,115.3z"/>
				<path class="st6" d="M104.1,115.3l9.7,5.2L99.7,140L89,129.9L104.1,115.3L104.1,115.3z"/>
			</g>
		</g>
		<path class="st3" d="M65.9,47.4c0.6,4,6.5,4.6,9.7,4.9c6.2,0.6,13.8-1.8,18.9-5.3c0.4-0.3,0.2-0.8-0.2-0.9
			C88.9,45.8,84,49.5,78.6,50c-3.9,0.3-9.2-0.2-12.2-2.9C66.2,46.9,65.9,47.1,65.9,47.4"/>
		<g>
			<g>
				<path class="st7" d="M70.3,77.1c0,0,1.5,2.5,6.1,2.5c4.6,0,5.4-2.2,5.4-2.9c0,0-1.8-3-5.4-3S70.3,77.1,70.3,77.1"/>
				<g>
					<g>
						
							<radialGradient id="SVGID_5_" cx="76.13" cy="99.38" r="2.615" gradientTransform="matrix(1 0 0 -1 0 176)" gradientUnits="userSpaceOnUse">
							<stop  offset="0" style="stop-color:#2E4962"/>
							<stop  offset="1.900000e-02" style="stop-color:#314E68"/>
							<stop  offset="0.106" style="stop-color:#3C627D"/>
							<stop  offset="0.209" style="stop-color:#44728E"/>
							<stop  offset="0.336" style="stop-color:#4A7D9A"/>
							<stop  offset="0.514" style="stop-color:#4D83A1"/>
							<stop  offset="1" style="stop-color:#4E85A3"/>
						</radialGradient>
						<circle class="st8" cx="76.1" cy="76.6" r="2.6"/>
						<path class="st9" d="M76.1,74.3c1.3,0,2.4,1.1,2.4,2.4S77.4,79,76.1,79c-1.3,0-2.4-1.1-2.4-2.4S74.8,74.3,76.1,74.3
							 M76.1,73.7c-1.6,0-2.9,1.3-2.9,2.9s1.3,2.9,2.9,2.9c1.6,0,2.9-1.3,2.9-2.9C79,75,77.7,73.7,76.1,73.7z"/>
					</g>
					<circle cx="76.1" cy="76.6" r="1.2"/>
				</g>
			</g>
			<g>
				<path class="st7" d="M107.6,77.1c0,0-1.5,2.5-6.1,2.5s-5.4-2.2-5.4-2.9c0,0,1.8-3,5.4-3C105,73.7,107.6,77.1,107.6,77.1"/>
				<g>
					<g>
						
							<radialGradient id="SVGID_6_" cx="431.71" cy="99.38" r="2.615" gradientTransform="matrix(-1 0 0 -1 533.39 176)" gradientUnits="userSpaceOnUse">
							<stop  offset="0" style="stop-color:#2E4962"/>
							<stop  offset="1.900000e-02" style="stop-color:#314E68"/>
							<stop  offset="0.106" style="stop-color:#3C627D"/>
							<stop  offset="0.209" style="stop-color:#44728E"/>
							<stop  offset="0.336" style="stop-color:#4A7D9A"/>
							<stop  offset="0.514" style="stop-color:#4D83A1"/>
							<stop  offset="1" style="stop-color:#4E85A3"/>
						</radialGradient>
						<circle class="st10" cx="101.7" cy="76.6" r="2.6"/>
						<path class="st9" d="M101.7,74.3c1.3,0,2.4,1.1,2.4,2.4S103,79,101.7,79c-1.3,0-2.4-1.1-2.4-2.4S100.4,74.3,101.7,74.3
							 M101.7,73.7c-1.6,0-2.9,1.3-2.9,2.9s1.3,2.9,2.9,2.9c1.6,0,2.9-1.3,2.9-2.9C104.6,75,103.3,73.7,101.7,73.7z"/>
					</g>
					<circle cx="101.7" cy="76.6" r="1.2"/>
				</g>
			</g>
			<g>
				<path class="st11" d="M83.9,89.1c-0.7,0.4-0.9,1.2-0.1,1.7c1.2,0.9,3,1,4.5,1c1.5,0,3.4-0.1,4.7-1c0.7-0.4,1.2-1.8,0.2-2.2
					c-0.2-0.1-0.5,0-0.4,0.3c0,0.3,0.3,0.6,0.3,0.9c-0.1,0.4-0.7,0.6-1,0.7c-1,0.4-2.1,0.4-3.2,0.5c-0.9,0-5.8,0.1-4.8-1.7
					C84,89.2,83.9,89.1,83.9,89.1"/>
				<path class="st11" d="M80.4,101c5,3.7,12.7,2.7,17.5-0.8c0.1-0.1,0-0.3-0.1-0.2c-5.9,2.5-11.2,3.2-17.2,0.7
					C80.3,100.6,80.2,100.9,80.4,101"/>
			</g>
			<g>
				<path class="st3" d="M65.1,66.5c5.7-0.8,11.1-1.6,16.3,1.3c0.5,0.3,0.9-0.5,0.5-0.8c-4.4-2.7-12.4-3.8-16.8-0.7
					C65,66.4,65,66.5,65.1,66.5"/>
				<path class="st3" d="M112.5,66.4c-4.4-3.1-12.5-2-16.8,0.7c-0.5,0.3-0.1,1.1,0.5,0.8c5.3-3,10.7-2.1,16.3-1.3
					C112.6,66.5,112.6,66.4,112.5,66.4"/>
			</g>
		</g>
		<path class="st3" d="M109.4,41.3c0.3,1.5,2.9,1.2,2.7-0.4c-2.1-16.3-20.4-17.9-34.3-15.8c-0.4-0.4-0.9-0.5-1.5-0.3
			c-1.3,0.4-2.5,0.8-3.8,1.3c-7.8,1.8-20.4,13.8-26.5,5.1c-0.8-1.1-2.8-0.8-2.7,0.7C44.1,46.2,58.5,53.9,71,56.3
			c6.8,1.3,14.1,1.2,20.9,0.7c6.3-0.5,14.4-1.4,18.8-6.5c0.5-0.6-0.1-1.5-0.8-1.1c-2,1.1-4.1,1.9-6.2,2.6c0.7-1.1,0.3-2.8-1.5-2.9
			c-0.8,0-1.6,0-2.4,0c-0.4-0.7-1.3-1.1-2.1-0.9c-1.3,0.3-2.6,0.6-3.8,0.9c-4.3-0.3-8.6-0.9-12.9-0.6c-3.2-0.5-6.3-1.3-9.3-2.7
			c-5-2.4-9.8-8.2-4.2-12.4c2.4-1.8,5.3-3,8-4.4c1.3-0.3,2.6-0.5,4-0.7c0.3,0,0.7,0,1,0c6.9,0.2,12.3,2.8,18.5,5.3
			c0.5,0.2,1-0.5,0.7-0.9c-1.3-1.8-3.1-3.2-5.3-4.3C101.6,29.6,107.6,33.3,109.4,41.3 M52.8,36.8C52.8,36.8,52.8,36.8,52.8,36.8
			C52.8,36.8,52.8,36.8,52.8,36.8C52.9,36.8,52.8,36.8,52.8,36.8"/>
	</g>
</g>
</svg>
