<?xml version="1.0" encoding="utf-8"?>
<!-- Generator: Adobe Illustrator 20.1.0, SVG Export Plug-In . SVG Version: 6.00 Build 0)  -->
<svg version="1.1" id="Layer_1" xmlns="http://www.w3.org/2000/svg" xmlns:xlink="http://www.w3.org/1999/xlink" x="0px" y="0px"
	 viewBox="0 0 174 174" style="enable-background:new 0 0 174 174;" xml:space="preserve">
<style type="text/css">
	.st0{clip-path:url(#SVGID_2_);fill:#79AFBC;}
	.st1{clip-path:url(#SVGID_4_);}
	.st2{fill:#E75E51;stroke:#E75E51;stroke-width:1.122;stroke-linecap:round;stroke-linejoin:round;stroke-miterlimit:10;}
	.st3{fill:#FFC785;}
	.st4{fill:#FFFFFF;}
	.st5{fill:url(#SVGID_5_);}
	.st6{fill:#5E622E;}
	.st7{fill:url(#SVGID_6_);}
	.st8{fill:#E48F67;}
	.st9{fill:#5F5659;}
	.st10{fill:#F0463A;}
</style>
<g>
	<defs>
		<ellipse id="SVGID_1_" cx="87" cy="87" rx="87" ry="87"/>
	</defs>
	<clipPath id="SVGID_2_">
		<use xlink:href="#SVGID_1_"  style="overflow:visible;"/>
	</clipPath>
	<ellipse class="st0" cx="87" cy="87" rx="87" ry="87"/>
</g>
<g>
	<defs>
		<ellipse id="SVGID_3_" cx="87" cy="87" rx="87" ry="87"/>
	</defs>
	<clipPath id="SVGID_4_">
		<use xlink:href="#SVGID_3_"  style="overflow:visible;"/>
	</clipPath>
	<g class="st1">
		<g>
			<path class="st2" d="M99.8,125.8c-0.3,0.4-26.2,0.8-26.5,1.2c-8.2,11.6-25.8,16.7-39.8,19.9c-14,3.1-14.5,20.8-14.5,32.7h136
				c0-11.8-0.3-29.5-14.5-32.6C126.3,143.8,107.6,138,99.8,125.8L99.8,125.8z"/>
			<g>
				<path class="st3" d="M73.4,101v22.4v11c-4.7,8.9,8.6,37.3,13.7,37.2c4.8-0.1,17.9-26,13.5-37.2v-11V101
					C100.6,82.9,73.4,82.9,73.4,101"/>
				<path class="st3" d="M123.1,85.8c-2.7-1.2-6.6,1.7-8.6,6.4c-2,4.7-1.5,9.5,1.3,10.7c2.7,1.2,6.6-1.7,8.6-6.4
					C126.4,91.7,125.8,86.9,123.1,85.8"/>
				<path class="st3" d="M50.9,85.8c2.7-1.2,6.6,1.7,8.6,6.4c2,4.7,1.5,9.5-1.3,10.7c-2.7,1.2-6.6-1.7-8.6-6.4
					C47.6,91.7,48.1,86.9,50.9,85.8"/>
				<path class="st3" d="M87,124.1c-8.9,0-27.6-13.9-33.4-33.9C47.7,69.9,58.8,41,87,41c28.2,0,39.3,28.9,33.4,49.1
					C114.6,110.1,95.9,124.1,87,124.1"/>
			</g>
		</g>
		<g>
			<g>
				<g>
					<path class="st4" d="M67.4,84.2c0,0,1.5,2.5,6.1,2.5c4.6,0,5.4-2.2,5.4-2.9c0,0-1.8-3-5.4-3S67.4,84.2,67.4,84.2"/>
					<g>
						<g>
							
								<radialGradient id="SVGID_5_" cx="88.45" cy="108.46" r="2.441" gradientTransform="matrix(1 0 0 -1 0 176)" gradientUnits="userSpaceOnUse">
								<stop  offset="0" style="stop-color:#5E622E"/>
								<stop  offset="1.900000e-02" style="stop-color:#636831"/>
								<stop  offset="0.106" style="stop-color:#747D3C"/>
								<stop  offset="0.209" style="stop-color:#828E44"/>
								<stop  offset="0.336" style="stop-color:#8C9A4A"/>
								<stop  offset="0.514" style="stop-color:#91A14D"/>
								<stop  offset="1" style="stop-color:#93A34E"/>
							</radialGradient>
							<circle class="st5" cx="73.3" cy="83.7" r="2.6"/>
							<path class="st6" d="M73.3,81.4c1.3,0,2.4,1.1,2.4,2.4s-1.1,2.4-2.4,2.4s-2.4-1.1-2.4-2.4S72,81.4,73.3,81.4 M73.3,80.8
								c-1.6,0-2.9,1.3-2.9,2.9c0,1.6,1.3,2.9,2.9,2.9c1.6,0,2.9-1.3,2.9-2.9S74.9,80.8,73.3,80.8z"/>
						</g>
						<circle cx="73.3" cy="83.7" r="1.2"/>
					</g>
				</g>
				<g>
					<path class="st4" d="M104.7,84.2c0,0-1.5,2.5-6.1,2.5c-4.6,0-5.4-2.2-5.4-2.9c0,0,1.8-3,5.4-3S104.7,84.2,104.7,84.2"/>
					<g>
						<g>
							
								<radialGradient id="SVGID_6_" cx="434.571" cy="92.285" r="2.612" gradientTransform="matrix(-1 0 0 -1 533.39 176)" gradientUnits="userSpaceOnUse">
								<stop  offset="0" style="stop-color:#5E622E"/>
								<stop  offset="1.900000e-02" style="stop-color:#636831"/>
								<stop  offset="0.106" style="stop-color:#747D3C"/>
								<stop  offset="0.209" style="stop-color:#828E44"/>
								<stop  offset="0.336" style="stop-color:#8C9A4A"/>
								<stop  offset="0.514" style="stop-color:#91A14D"/>
								<stop  offset="1" style="stop-color:#93A34E"/>
							</radialGradient>
							<path class="st7" d="M98.8,86.3c-1.4,0-2.6-1.2-2.6-2.6s1.2-2.6,2.6-2.6c1.4,0,2.6,1.2,2.6,2.6S100.3,86.3,98.8,86.3"/>
							<path class="st6" d="M98.8,81.4c1.3,0,2.4,1.1,2.4,2.4s-1.1,2.4-2.4,2.4c-1.3,0-2.4-1.1-2.4-2.4S97.5,81.4,98.8,81.4
								 M98.8,80.8c-1.6,0-2.9,1.3-2.9,2.9s1.3,2.9,2.9,2.9c1.6,0,2.9-1.3,2.9-2.9C101.7,82.1,100.4,80.8,98.8,80.8z"/>
						</g>
						<circle cx="98.8" cy="83.7" r="1.2"/>
					</g>
				</g>
				<path class="st8" d="M81,96.2c-0.7,0.4-0.9,1.2-0.1,1.7c1.2,0.9,3,1,4.5,1c1.5,0,3.4-0.1,4.7-1c0.7-0.4,1.2-1.8,0.2-2.2
					c-0.2-0.1-0.5,0-0.4,0.3c0,0.3,0.3,0.6,0.3,0.9c-0.1,0.4-0.7,0.6-1,0.7c-1,0.4-2.1,0.4-3.2,0.5c-0.9,0-5.8,0.1-4.8-1.7
					C81.2,96.3,81.1,96.2,81,96.2"/>
				<g>
					<path class="st9" d="M62.2,75.6c5.5-1.2,11.3-1.7,16.4,1.2c0.3,0.2,0.6-0.3,0.3-0.5C74.5,73.5,66.9,72.7,62.2,75.6
						C62.2,75.5,62.2,75.6,62.2,75.6"/>
					<path class="st9" d="M109.7,75.5c-4.7-2.8-12.3-2-16.8,0.8c-0.3,0.2,0,0.7,0.3,0.5C98.3,73.9,104.1,74.3,109.7,75.5
						C109.7,75.6,109.7,75.5,109.7,75.5"/>
				</g>
			</g>
			<g>
				<path class="st10" d="M98.6,108.4L98.6,108.4c0.3-0.1,0.6-0.2,0.6-0.2c-0.3,0.1-0.7,0.1-1.1,0.1l-2.6-0.3
					c-3.7-0.8-7.6-3.1-7.6-3.1l-1.4,1.7l-1.4-1.7c0,0-7.1,4.3-11.3,3.3c5.4,5,12.3,4.7,12.3,4.7c6.5,0.1,13-4.7,13-4.7
					C99,108.2,98.8,108.3,98.6,108.4 M75.3,108.5C75.2,108.5,75.2,108.5,75.3,108.5c-0.7-0.2-1.1-0.3-1.3-0.3
					C74.2,108.3,74.6,108.4,75.3,108.5"/>
				<path class="st4" d="M85.5,110.9c-2.5-0.1-8.4-1.4-8.5-1.8c0-0.2,2.5-0.4,4.9-0.8c1.9-0.3,3.8-0.8,4.4-0.8
					c0.6,0,2.3,0.5,3.9,0.8c2.1,0.4,4.2,0.6,4.6,0.7C95.2,109,91.2,111,85.5,110.9"/>
			</g>
		</g>
		<g>
			<g>
				<path class="st9" d="M52.6,89.8C45.7,51.9,68.1,39.9,87,39.9c21.3,0,43.3,16.3,33.1,51.1c-13.1-23.7-38.8-3-56.7-26.8
					C60.3,76.3,58.2,82,52.6,89.8"/>
				<circle class="st9" cx="72.7" cy="40" r="16.6"/>
				<path class="st9" d="M122,79.9c0,0-2.3,22.7-7.3,31.3l-0.3-44L122,79.9"/>
			</g>
			<path class="st9" d="M115.4,104.2c-1,3.7-1.4,8.2,0.9,11.2c2.3,2.9,7.3,3.5,10.2,1.1c2.3-2,2.9-5.4,2.2-8.2
				c-0.6-2.6-3.2-4.4-5.4-2.2c-0.6,0.7,0,1.8,0.9,1.6c1.3-0.4,1.7,1,1.8,2c0.3,1.6-0.3,3.7-1.7,4.7c-2.1,1.5-5.5,0.3-6.4-2
				c-1-2.4-0.5-6.6-0.1-9.3C118,102.2,115.8,103.2,115.4,104.2"/>
			<path class="st9" d="M51.6,79.8c0,0,1.5,22.7,7,31.4l0.3-44L51.6,79.8"/>
			<path class="st9" d="M58,104.1c1,3.7,1.4,8.2-0.9,11.2c-2.3,2.9-7.3,3.5-10.2,1.1c-2.3-2-2.9-5.4-2.2-8.2
				c0.6-2.6,3.2-4.4,5.4-2.2c0.6,0.7,0,1.8-0.9,1.6c-1.3-0.4-1.7,1-1.8,2c-0.3,1.6,0.3,3.7,1.7,4.7c2.1,1.5,5.5,0.3,6.4-2
				c1-2.4,0.5-6.6,0.1-9.3C55.3,102.1,57.5,103.1,58,104.1"/>
		</g>
	</g>
</g>
</svg>
