<?xml version="1.0" encoding="utf-8"?>
<!-- Generator: Adobe Illustrator 20.1.0, SVG Export Plug-In . SVG Version: 6.00 Build 0)  -->
<svg version="1.1" id="Layer_1" xmlns="http://www.w3.org/2000/svg" xmlns:xlink="http://www.w3.org/1999/xlink" x="0px" y="0px"
	 viewBox="0 0 174 174" style="enable-background:new 0 0 174 174;" xml:space="preserve">
<style type="text/css">
	.st0{clip-path:url(#SVGID_2_);fill:#7CC5D8;}
	.st1{clip-path:url(#SVGID_4_);}
	.st2{fill:#F5BE92;}
	.st3{fill:#92653D;}
	.st4{fill:#4C9DD2;stroke:#4C9DD2;stroke-width:1.084;stroke-linecap:round;stroke-linejoin:round;stroke-miterlimit:10;}
	.st5{fill:#FFFFFF;stroke:#FFFFFF;stroke-width:2;stroke-linecap:round;stroke-miterlimit:10;}
	.st6{fill:#FFFFFF;}
	.st7{fill:url(#SVGID_5_);}
	.st8{fill:#624A2E;}
	.st9{fill:url(#SVGID_6_);}
	.st10{fill:#E48F67;}
	.st11{fill:#0A6F90;}
</style>
<g>
	<defs>
		<ellipse id="SVGID_1_" cx="87" cy="87" rx="87" ry="87"/>
	</defs>
	<clipPath id="SVGID_2_">
		<use xlink:href="#SVGID_1_"  style="overflow:visible;"/>
	</clipPath>
	<ellipse class="st0" cx="87" cy="87" rx="87" ry="87"/>
</g>
<g>
	<defs>
		<ellipse id="SVGID_3_" cx="87" cy="87" rx="87" ry="87"/>
	</defs>
	<clipPath id="SVGID_4_">
		<use xlink:href="#SVGID_3_"  style="overflow:visible;"/>
	</clipPath>
	<g class="st1">
		<g>
			<g>
				<ellipse class="st2" cx="54.4" cy="72.9" rx="7.9" ry="4.6"/>
				<ellipse class="st2" cx="119.8" cy="72.9" rx="7.9" ry="4.6"/>
			</g>
			<path class="st3" d="M110,32.5c6.7,1.1,10.5,5.7,12.1,12c4.2,16.3-4.5,51.7-34.6,52.1c-15.5,0.2-26.7-3.7-30.7-16.3
				c-4.1-12.6-5.7-32.8,3.1-44.1C70.9,21.9,94.3,21.8,110,32.5"/>
			<path class="st4" d="M74.4,115.6c-28.1,12.3-36.6,18.9-39.9,21.9c-5.1,4.6-8.2,22.1-11.2,36.5H87h63.7c-3-14.4-5.7-32-10.8-36.5
				c-3.3-3-11.5-9.4-39.6-21.7L74.4,115.6L74.4,115.6z"/>
			<g>
				<path class="st2" d="M73.5,91v20.9v12.5c7.5,8.9,19.8,9.2,27.3,0v-12.5V91C100.8,74.2,73.5,74.2,73.5,91"/>
				<path class="st2" d="M87.2,35c-45.9,0-29.4,59.8-26.4,64.2c3.3,4.9,19,13.4,26.4,13.4s23.1-9.6,26.4-14.5
					C116.5,93.7,133,35,87.2,35"/>
			</g>
			<path class="st3" d="M64.8,49.4c8.1,4.9,14.3-2.4,21.6,0.7c7.3,3.1,28.2-5.4,32.4,27.8c6.9-24-4.7-44.1-31-45.3
				c-28-1.2-39.4,20.7-31.6,44.6C55.7,64.3,58.9,55.8,64.8,49.4"/>
			<g>
				<path class="st5" d="M72.2,115.3l-9.7,5.2L76.6,140l10.7-10.1L72.2,115.3L72.2,115.3z"/>
				<path class="st5" d="M102.3,115.3l9.7,5.2L97.9,140l-10.7-10.1C87.2,129.9,102.3,115.3,102.3,115.3z"/>
			</g>
		</g>
		<path class="st3" d="M64.1,47.4c0.6,4,6.5,4.6,9.7,4.9c6.2,0.6,13.8-1.8,18.9-5.3c0.4-0.3,0.2-0.8-0.2-0.9
			c-5.4-0.3-10.2,3.4-15.6,3.9c-3.9,0.3-9.2-0.2-12.2-2.9C64.4,46.9,64.1,47.1,64.1,47.4"/>
		<g>
			<g>
				<path class="st6" d="M68.5,77.1c0,0,1.5,2.5,6.1,2.5c4.6,0,5.4-2.2,5.4-2.9c0,0-1.8-3-5.4-3S68.5,77.1,68.5,77.1"/>
				<g>
					<g>
						
							<radialGradient id="SVGID_5_" cx="74.33" cy="99.38" r="2.615" gradientTransform="matrix(1 0 0 -1 0 176)" gradientUnits="userSpaceOnUse">
							<stop  offset="0" style="stop-color:#624A2E"/>
							<stop  offset="3.600000e-02" style="stop-color:#6D5633"/>
							<stop  offset="0.122" style="stop-color:#816B3D"/>
							<stop  offset="0.223" style="stop-color:#907C45"/>
							<stop  offset="0.348" style="stop-color:#9B884A"/>
							<stop  offset="0.523" style="stop-color:#A18F4D"/>
							<stop  offset="1" style="stop-color:#A3914E"/>
						</radialGradient>
						<circle class="st7" cx="74.3" cy="76.6" r="2.6"/>
						<path class="st8" d="M74.3,74.3c1.3,0,2.4,1.1,2.4,2.4S75.6,79,74.3,79C73,79,72,77.9,72,76.6C72,75.3,73,74.3,74.3,74.3
							 M74.3,73.7c-1.6,0-2.9,1.3-2.9,2.9s1.3,2.9,2.9,2.9c1.6,0,2.9-1.3,2.9-2.9C77.2,75,75.9,73.7,74.3,73.7z"/>
					</g>
					<circle cx="74.3" cy="76.6" r="1.2"/>
				</g>
			</g>
			<g>
				<path class="st6" d="M105.8,77.1c0,0-1.5,2.5-6.1,2.5c-4.6,0-5.4-2.2-5.4-2.9c0,0,1.8-3,5.4-3C103.2,73.7,105.8,77.1,105.8,77.1
					"/>
				<g>
					<g>
						
							<radialGradient id="SVGID_6_" cx="-471.41" cy="99.38" r="2.615" gradientTransform="matrix(1 0 0 -1 0 176)" gradientUnits="userSpaceOnUse">
							<stop  offset="0" style="stop-color:#624A2E"/>
							<stop  offset="3.600000e-02" style="stop-color:#6D5633"/>
							<stop  offset="0.122" style="stop-color:#816B3D"/>
							<stop  offset="0.223" style="stop-color:#907C45"/>
							<stop  offset="0.348" style="stop-color:#9B884A"/>
							<stop  offset="0.523" style="stop-color:#A18F4D"/>
							<stop  offset="1" style="stop-color:#A3914E"/>
						</radialGradient>
						<circle class="st9" cx="99.9" cy="76.6" r="2.6"/>
						<path class="st8" d="M99.9,74.3c1.3,0,2.4,1.1,2.4,2.4s-1.1,2.4-2.4,2.4s-2.4-1.1-2.4-2.4S98.6,74.3,99.9,74.3 M99.9,73.7
							c-1.6,0-2.9,1.3-2.9,2.9s1.3,2.9,2.9,2.9c1.6,0,2.9-1.3,2.9-2.9C102.8,75,101.5,73.7,99.9,73.7z"/>
					</g>
					<circle cx="99.9" cy="76.6" r="1.2"/>
				</g>
			</g>
			<g>
				<path class="st10" d="M82.1,89.1c-0.7,0.4-0.9,1.2-0.1,1.7c1.2,0.9,3,1,4.5,1c1.5,0,3.4-0.1,4.7-1c0.7-0.4,1.2-1.8,0.2-2.2
					c-0.2-0.1-0.5,0-0.4,0.3c0,0.3,0.3,0.6,0.3,0.9c-0.1,0.4-0.7,0.6-1,0.7c-1,0.4-2.1,0.4-3.2,0.5c-0.9,0-5.8,0.1-4.8-1.7
					C82.2,89.2,82.1,89.1,82.1,89.1"/>
				<path class="st10" d="M78.6,101c5,3.7,12.7,2.7,17.5-0.8c0.1-0.1,0-0.3-0.1-0.2c-5.9,2.5-11.2,3.2-17.2,0.7
					C78.5,100.6,78.4,100.9,78.6,101"/>
			</g>
			<g>
				<path class="st3" d="M63.3,66.5c5.7-0.8,11.1-1.6,16.3,1.3c0.5,0.3,0.9-0.5,0.5-0.8c-4.4-2.7-12.4-3.8-16.8-0.7
					C63.2,66.4,63.2,66.5,63.3,66.5"/>
				<path class="st3" d="M110.7,66.4c-4.4-3.1-12.5-2-16.8,0.7c-0.5,0.3-0.1,1.1,0.5,0.8c5.3-3,10.7-2.1,16.3-1.3
					C110.8,66.5,110.8,66.4,110.7,66.4"/>
			</g>
		</g>
		<path class="st11" d="M99.8,87.9c0.2,0,0.5,0,0.8,0c7.1-0.6,8.8-3.8,9.6-7.8c0.9-4.4,0.9-5.9,2.1-6.4c0.8-0.3,1-1.3,1-2.4
			c0-1.1-0.1-1.3-1.4-1.7c-1.1-0.4-7.1-0.9-11.7-0.6l0,1.2c3.6-0.2,7,0.2,8,0.9c2.3,1.5,1.6,8.6-0.3,12.1c-1.3,2.4-4.8,3.7-8,3.7
			L99.8,87.9 M86.6,71.2c-1.6,0-8-1.8-12.5-2.2c-0.3,0-0.7-0.1-1-0.1l0,1.2c3.7,0.2,7.5,1,8.8,3c2.2,3.2-1.7,11.2-5.2,12.9
			c-1.1,0.5-2.5,0.8-3.9,0.8l0,1.1c6.1,0,8.4-4.4,9.1-5.9c1.4-2.8,1.1-6.6,4.6-6.6c3.5,0,3,3.7,4.3,6.5c0.7,1.5,2.7,6.1,9,5.9l0-1.1
			c-1.6,0-3.1-0.2-4.1-0.8c-3.4-1.7-6.8-9.6-4.4-12.9c1.4-2,5.2-2.8,8.9-3l0-1.2c-0.3,0-0.6,0-0.8,0.1
			C95.2,69.3,90.2,71.1,86.6,71.2 M73.1,68.9c-4.5-0.2-10.4,0.3-11.5,0.7c-1.4,0.5-1.5,0.6-1.6,1.8c-0.1,1.1,0.1,2.1,0.9,2.4
			c1.1,0.4,1.1,1.9,1.7,6.3c0.5,4,2.1,7.2,9.1,7.7c0.4,0,0.7,0,1,0l0-1.1c-3.2,0-6.8-1.2-8.1-3.7c-1.7-3.5-1.9-10.6,0.4-12.1
			c1-0.6,4.4-1.1,7.9-0.9L73.1,68.9"/>
		<g>
			<path class="st3" d="M116.4,60.3c-1.3-0.2-2.4-1-3.3-1.9c-0.5-0.5-0.9-1.1-1.1-1.8c-0.2-0.7,0-1.2-0.6-1.8
				c-0.3-0.3-0.8-0.4-1.2-0.1c0,0,0,0,0,0c0-0.2,0.1-0.5,0.1-0.7c0.2-0.9-0.8-1.5-1.5-0.9c-0.4,0.3-0.7,0.7-0.8,1.2
				c0-0.8-0.6-1.5-1.6-1.3c-0.8,0.2-2.1,0.1-3.2-0.3c0-0.1,0-0.3,0-0.4c-0.4-1.3-1.3-2-1.9-3.2c-0.5-1.1-2.4-0.8-2.6,0.3
				c0,0.1,0,0.1,0,0.1c-0.2-0.4-0.4-0.8-0.7-1.2c-0.4-0.5-1.2-0.5-1.4,0.2c-0.2,0.5-0.2,1-0.1,1.5c-0.4,0.2-0.9,0.3-1.4,0.5
				c-0.1,0-0.1-0.1-0.2-0.1c-1.7-0.7-3.5-1.3-4.9-2.5c-0.5-0.4-1.2-0.4-1.6-0.1c-0.8-0.5-1.9-0.5-2.6,0.5c-2.5,3.7-4.4,0.3-6.3-0.7
				c-0.8-0.4-1.9,0.1-1.9,1.1c0,0.2,0,0.4,0.1,0.5c-0.2-0.2-0.3-0.4-0.4-0.6c-0.6-1-1.8-1-2.5-0.3c-1.7,1.4-3.8,2-6,2.3
				c-0.3,0-0.6,0-0.8,0c0.3-0.3,0.6-0.8,0.4-1.2c-0.1-0.2,0-0.1,0,0.1c0-0.5-0.3-1-0.8-1.1c-0.9-0.2-1.7-0.7-2.6-0.8
				c-0.6-0.1-1.2,0.6-0.7,1.1c0.1,0.1,0.2,0.2,0.2,0.2c0,0.1,0,0.2,0,0.3c-0.6-0.5-1.3-1.1-2-1.7c-0.4-0.3-1-0.2-1.1,0.3
				c-1.7,7.2,9.1,6,14.1,3.8c3.5,4.3,11.1,5.2,13.3-0.3c1.3,1.8,4.2,2.1,6.8,1.5c0.7-0.1,1.3-0.3,1.8-0.6c0.6,1,1.4,1.9,2.2,2.5
				c2.3,1.6,5.1,1.8,7.7,0.9c0.3-0.1,0.6-0.3,0.7-0.6c-0.3,1.5,0.4,3.3,1.3,4.5c1.6,2,4.2,3.5,6.8,3.3
				C117.3,62.6,117.8,60.5,116.4,60.3"/>
			<path class="st3" d="M61.4,38.9c0-0.1,0-0.1,0-0.2c0.4-0.1,0.6-0.4,0.7-0.8c0.7,0.2,1.5-0.2,1.5-1.2c-0.1-2,0.2-3.4,2.3-3.9
				c1.6-0.4,3.5-0.1,5.2,0c1.2,0.1,1.7-1.5,0.9-2.3c-0.6-0.6-1.4-1-2.2-1.3c0.4-0.3,0.8-0.6,1.1-0.7c0.3-0.1,0.5-0.1,0.8-0.2
				c-0.1,0.5-0.1,1.1,0,1.8c0.1,0.7,1.2,0.5,1.2-0.2c0-0.6,0.1-1.1,0.4-1.5c0.6,0.2,1.1,0.4,1.8,0.2c0.4-0.2,0.7-0.5,0.7-0.9
				c0.6,0.1,1.2,0.4,1.8,0.8c0.6,0.4,1,1.1,1.7,1.3c0.6,0.2,1.1-0.3,1.2-0.9c0.1-1-0.6-1.7-1.5-2.3c0.8-1.3,2.5-1.6,4-1.1
				c0,0.5,0.3,0.9,0.8,1.1c0.6,0.1,1.2,0.3,1.8,0.3c0.1,0,0.2,0,0.3,0c0,0.7,0.2,1.5,0.4,2.2c0.2,0.6,1.1,0.5,1.1-0.1
				c-0.1-2.8,2-3.4,4.3-2.8c1.1,0.3,2.2,0.9,3.1,1.6c0.8,0.7,1.3,1.6,2.1,2.1c0.4,0.3,1,0,1.2-0.5c0.8-3.4-4.6-5.6-7.1-5.9
				c-1.4-0.2-2.9,0.2-4,1.2c-0.1,0.1-0.2,0.2-0.3,0.3c0-0.1-0.1-0.2-0.2-0.2c-2.4-2.5-8.4-2.5-9.3,1.1c-0.8-0.2-1.6-0.3-2.2-0.3
				c-0.4,0-0.8,0.1-1.1,0.2c-1.3-0.3-3,0-3.9,0.4c-0.9,0.4-1.8,1.1-2.4,1.9c-0.1,0.2-0.2,0.4-0.3,0.6c-1.6-0.1-3.2,0.2-4.5,0.7
				c-3.1,1.1-3.4,3.9-3,6.7c-3.1,0.7-6,5.5-4.7,7.9c0.1,0.9,0.5,1.8,1.2,2.4c-1.4,0.3-2.4,1.1-3,2.2c-2,2-1.9,6,0.1,8.2
				c0.2,0.2,0.3,0.4,0.5,0.6c0.2,0.1,0.3,0.2,0.5,0.2c1.2,0.3,2.5-0.8,1.7-2.1c-0.7-1.2-1-2.5-0.8-3.9c0.1-0.5,0.2-0.8,0.4-1.1
				c0.1-0.1,0.3-0.1,0.4-0.1c0.8-0.1,1.2-0.6,1.3-1.2c0.2-0.1,0.4-0.1,0.5-0.2c1.3-0.3,1.2-1.9,0.3-2.5c0.4-0.5,0.6-1.4,0.1-2
				c-1.4-1.7,0.1-4.6,2-5.5C60.5,39.5,61.3,39.4,61.4,38.9"/>
		</g>
	</g>
</g>
</svg>
