<?xml version="1.0" encoding="utf-8"?>
<!-- Generator: Adobe Illustrator 20.1.0, SVG Export Plug-In . SVG Version: 6.00 Build 0)  -->
<svg version="1.1" id="Layer_1" xmlns="http://www.w3.org/2000/svg" xmlns:xlink="http://www.w3.org/1999/xlink" x="0px" y="0px"
	 viewBox="0 0 174.1 174.1" style="enable-background:new 0 0 174.1 174.1;" xml:space="preserve">
<style type="text/css">
	.st0{clip-path:url(#SVGID_2_);fill:#BAC17A;}
	.st1{clip-path:url(#SVGID_4_);}
	.st2{fill:#F5704D;}
	.st3{fill:#4C9DD2;}
	.st4{fill:#FFC785;}
	.st5{fill:#FFFFFF;}
	.st6{fill:url(#SVGID_5_);}
	.st7{fill:#2E6232;}
	.st8{fill:url(#SVGID_6_);}
	.st9{fill:#E48F67;}
	.st10{fill:#924A0B;}
	.st11{fill:#F0463A;}
	.st12{fill:#FFFFFF;stroke:#FFFFFF;stroke-width:1.321;stroke-miterlimit:10;}
</style>
<g>
	<defs>
		<ellipse id="SVGID_1_" cx="87" cy="87" rx="87" ry="87"/>
	</defs>
	<clipPath id="SVGID_2_">
		<use xlink:href="#SVGID_1_"  style="overflow:visible;"/>
	</clipPath>
	<ellipse class="st0" cx="87" cy="87" rx="87" ry="87"/>
</g>
<g>
	<defs>
		<ellipse id="SVGID_3_" cx="87" cy="87" rx="87" ry="87"/>
	</defs>
	<clipPath id="SVGID_4_">
		<use xlink:href="#SVGID_3_"  style="overflow:visible;"/>
	</clipPath>
	<g class="st1">
		<g>
			<path class="st2" d="M73.4,35.6c3.5-5.8,31.4-10.9,42.7,9.7c11.4,20.6,5.6,27.8,11.9,35.1c6.3,7.3,0.4,24-4,25.4
				c-4.4,1.5-2.6,7.2-0.5,9.7c9.1,10.6-4,28.4-39.1,28.2c-37.4-0.2-44.8-20.9-35.2-27.4c3.1-2.1,4.3-6.2,0.9-9.7
				c-3.4-3.6-11.3-16.9-3.9-27.8C53.8,68,47.3,35.6,73.4,35.6"/>
			<path class="st3" d="M99.3,120.4c-0.3,0.4-26.1,0.8-26.4,1.2c-8.1,11.6-25.6,16.6-39.6,19.8c-13.9,3.1-14.4,20.7-14.4,32.4h135.2
				c0-11.7-0.3-29.3-14.4-32.4C125.5,138.3,107,132.5,99.3,120.4"/>
			<g>
				<path class="st4" d="M73,95.7V118v11c6.8,13.9,19,14.2,27.1,0v-11V95.7C100,77.8,73,77.8,73,95.7"/>
				<ellipse class="st4" cx="120.1" cy="89.1" rx="9.7" ry="5.6"/>
				<path class="st4" d="M86.5,118.7c-8.8,0-27.4-13.9-33.2-33.7c-5.8-20.1,5.1-48.8,33.2-48.8c28.1,0,39,28.8,33.2,48.8
					C113.9,104.8,95.3,118.7,86.5,118.7"/>
			</g>
		</g>
		<g>
			<g>
				<path class="st5" d="M67.9,78.5c0,0,1.5,2.5,6.1,2.5c4.6,0,5.4-2.2,5.4-2.9c0,0-1.8-3-5.4-3S67.9,78.5,67.9,78.5"/>
				<g>
					<g>
						
							<radialGradient id="SVGID_5_" cx="57.0668" cy="114.5401" r="2.4441" gradientTransform="matrix(1.0716 0 0 -1.0717 12.6072 200.8126)" gradientUnits="userSpaceOnUse">
							<stop  offset="0.452" style="stop-color:#2E6232"/>
							<stop  offset="0.463" style="stop-color:#326834"/>
							<stop  offset="0.51" style="stop-color:#407D3E"/>
							<stop  offset="0.567" style="stop-color:#4B8E45"/>
							<stop  offset="0.637" style="stop-color:#529A4A"/>
							<stop  offset="0.734" style="stop-color:#57A14D"/>
							<stop  offset="1" style="stop-color:#58A34E"/>
						</radialGradient>
						<circle class="st6" cx="73.8" cy="78.1" r="2.6"/>
						<path class="st7" d="M73.8,75.7c1.3,0,2.4,1.1,2.4,2.4c0,1.3-1.1,2.4-2.4,2.4s-2.4-1.1-2.4-2.4C71.4,76.8,72.5,75.7,73.8,75.7
							 M73.8,75.2c-1.6,0-2.9,1.3-2.9,2.9s1.3,2.9,2.9,2.9c1.6,0,2.9-1.3,2.9-2.9C76.6,76.5,75.3,75.2,73.8,75.2z"/>
					</g>
					<circle cx="73.8" cy="78.1" r="1.2"/>
				</g>
			</g>
			<g>
				<path class="st5" d="M105.2,78.5c0,0-1.5,2.5-6.1,2.5c-4.6,0-5.4-2.2-5.4-2.9c0,0,1.8-3,5.4-3S105.2,78.5,105.2,78.5"/>
				<g>
					<g>
						
							<radialGradient id="SVGID_6_" cx="-470.78" cy="97.945" r="2.615" gradientTransform="matrix(1 0 0 -1 0 176)" gradientUnits="userSpaceOnUse">
							<stop  offset="0.452" style="stop-color:#2E6232"/>
							<stop  offset="0.463" style="stop-color:#326834"/>
							<stop  offset="0.51" style="stop-color:#407D3E"/>
							<stop  offset="0.567" style="stop-color:#4B8E45"/>
							<stop  offset="0.637" style="stop-color:#529A4A"/>
							<stop  offset="0.734" style="stop-color:#57A14D"/>
							<stop  offset="1" style="stop-color:#58A34E"/>
						</radialGradient>
						<path class="st8" d="M99.3,80.7c-1.4,0-2.6-1.2-2.6-2.6s1.2-2.6,2.6-2.6c1.4,0,2.6,1.2,2.6,2.6S100.8,80.7,99.3,80.7"/>
						<path class="st7" d="M99.3,75.7c1.3,0,2.4,1.1,2.4,2.4s-1.1,2.4-2.4,2.4c-1.3,0-2.4-1.1-2.4-2.4S98,75.7,99.3,75.7 M99.3,75.2
							c-1.6,0-2.9,1.3-2.9,2.9c0,1.6,1.3,2.9,2.9,2.9c1.6,0,2.9-1.3,2.9-2.9C102.2,76.5,100.9,75.2,99.3,75.2z"/>
					</g>
					<circle cx="99.3" cy="78.1" r="1.2"/>
				</g>
			</g>
			<path class="st9" d="M81.5,90.6c-0.7,0.4-0.9,1.2-0.1,1.7c1.2,0.9,3,1,4.5,1c1.5,0,3.4-0.1,4.7-1c0.7-0.4,1.2-1.8,0.2-2.2
				c-0.2-0.1-0.5,0-0.4,0.3c0,0.3,0.3,0.6,0.3,0.9c-0.1,0.4-0.7,0.6-1,0.7c-1,0.4-2.1,0.4-3.2,0.5c-0.9,0-5.8,0.1-4.8-1.7
				C81.7,90.6,81.6,90.5,81.5,90.6"/>
			<g>
				<path class="st10" d="M62.7,69.9c5.5-1.2,11.3-1.7,16.4,1.2c0.3,0.2,0.6-0.3,0.3-0.5C75,67.9,67.4,67,62.7,69.9
					C62.7,69.8,62.7,69.9,62.7,69.9"/>
				<path class="st10" d="M110.2,69.8c-4.7-2.8-12.3-2-16.8,0.8c-0.3,0.2,0,0.7,0.3,0.5C98.8,68.2,104.6,68.7,110.2,69.8
					C110.2,69.9,110.2,69.8,110.2,69.8"/>
			</g>
		</g>
		<g>
			<path class="st11" d="M97.1,102.2c0,0-8.2-3.4-9.4-1.8c-0.1,0.1-0.1,0.2-0.2,0.3c-0.1-0.1-0.1-0.2-0.2-0.3
				c-1.2-1.6-9.4,1.8-9.4,1.8s4.6,5.9,9.6,5.8C92.7,108.2,97.1,102.2,97.1,102.2C97.1,102.2,97.1,102.2,97.1,102.2
				C97.1,102.2,97.1,102.2,97.1,102.2 M93.4,102.2c0,0-2.9,2.7-6.1,2.8c-1.9,0-3.9-2.2-5.6-3c0,0,2.7,0.4,5.8,0.3
				C89.4,102.3,91.6,101.7,93.4,102.2"/>
			<path class="st5" d="M87.5,102.3c-3.1,0-5.8-0.3-5.8-0.3c1,1.1,3.7,3,5.6,3c3.2,0,6.1-2.8,6.1-2.8
				C91.6,101.7,89.4,102.3,87.5,102.3"/>
		</g>
		<g>
			<path class="st2" d="M79.9,61C73,74.8,70.2,78.9,61,75.2c-9.2-3.6-8.4,6.6-6.8,13.8c-8.1-9.8-6.2-19.1-3.6-28.6
				C53.4,50,67.4,34.2,80.4,34.5c7.1-0.7,17.9,0.1,29.3,8c20,13.7,13.3,44.6,7.9,48.2c5.2-28.6-7.5-22.8-16.4-37.7
				C98.4,46.5,87.4,46.1,79.9,61"/>
			<g>
				<path class="st5" d="M85.1,139.6h2.8v34.3h-2.8V139.6z"/>
				<g>
					<path class="st12" d="M73,121.7l-9.7,8.8l12.3,19.1l10.6-10.1L73,121.7z"/>
					<path class="st12" d="M100,121.6l9.7,9.2l-12.9,18.8l-10.6-10.1L100,121.6z"/>
				</g>
			</g>
		</g>
		<g>
			<path class="st2" d="M57.2,67c-1.7,5.5-5.6,9.2-3.3,15.4c1.8,4.9,6.7,12.7,1.7,17.1c2.2,0.9,4.4,1.8,6.6,2.7
				c-0.7-5.5-1.3-10.1-3.3-15.3c-1.5-3.8-2-10.6,1.9-13.2c-1.9-1.1-3.8-2.2-5.6-3.2c-0.1,7.9-2.8,15.9,1.1,23.3
				c2.2,4.2,8.4,0.5,6.3-3.7c-2.9-5.7-0.1-13.6,0.1-19.7c0.1-2.7-3.3-4.8-5.6-3.2c-4.9,3.3-6.5,8.2-6.7,13.9
				c-0.1,3.2,0.7,6.3,1.8,9.3c1.6,4.3,1.9,8.3,2.6,12.8c0.4,3.1,4.5,3.4,6.4,1.7c5.7-5.1,4.6-12.9,2.1-19.4
				c-1.5-3.8-3.7-6.5-2.7-10.7c0.9-3.5,0.9-5.8-1.7-8.3C58.2,66.2,57.4,66.4,57.2,67"/>
			<path class="st2" d="M114.1,65c1.5,7.8,3.5,14.7,2.2,22.7c-0.9,5.6-4.2,10.9-3.1,16.8c0.1,0.6,1.1,0.8,1.3,0.2
				c5.3-12.3,8.8-28.2,1-40.2C115,63.6,113.9,64.1,114.1,65"/>
		</g>
	</g>
</g>
</svg>
